<svg width="132" height="120" viewBox="0 0 132 120" fill="none" xmlns="http://www.w3.org/2000/svg">
<g clip-path="url(#clip0_1_394)">
<path d="M67.6017 0.812614L63.3066 1.92419L10.3908 15.619L6.09575 16.7306C4.01099 17.2727 2.2256 18.6225 1.13129 20.484C0.0369767 22.3455 -0.276892 24.5666 0.258542 26.6601L18.8828 99.1395C19.4229 101.232 20.768 103.024 22.6228 104.122C24.4777 105.22 26.6908 105.535 28.7768 104.998L28.7879 104.995L90.2717 89.0826L90.2828 89.0797C92.3675 88.5376 94.1529 87.1878 95.2472 85.3263C96.3415 83.4648 96.6554 81.2437 96.12 79.1502L77.4957 6.67077C76.9556 4.57853 75.6105 2.78674 73.7557 1.68851C71.9009 0.590266 69.6877 0.275266 67.6017 0.812614Z" fill="#F2F2F2"/>
<path d="M68.1855 3.08483L63.0983 4.40142L11.7666 17.6863L6.67951 19.0028C5.1949 19.3888 3.92347 20.3501 3.14418 21.6757C2.36489 23.0013 2.14138 24.583 2.52267 26.0738L21.1469 98.5533C21.5316 100.043 22.4894 101.319 23.8103 102.101C25.1312 102.883 26.7072 103.108 28.1927 102.725L28.2038 102.722L89.6875 86.8099L89.6987 86.807C91.1833 86.421 92.4547 85.4597 93.234 84.1341C94.0133 82.8085 94.2368 81.2268 93.8555 79.736L75.2312 7.25657C74.8466 5.76665 73.8888 4.49068 72.5679 3.7086C71.247 2.92652 69.671 2.70219 68.1855 3.08483Z" fill="white"/>
<path d="M64.3441 26.5556L33.241 34.6052C32.8936 34.6951 32.5249 34.6429 32.2159 34.4599C31.9069 34.277 31.683 33.9783 31.5934 33.6297C31.5038 33.2811 31.5559 32.911 31.7382 32.6009C31.9205 32.2908 32.2181 32.0661 32.5654 31.9762L63.6686 23.9266C64.0159 23.837 64.3843 23.8895 64.6931 24.0725C65.0018 24.2555 65.2255 24.554 65.315 24.9024C65.4046 25.2508 65.3526 25.6207 65.1706 25.9307C64.9885 26.2407 64.6913 26.4655 64.3441 26.5556Z" fill="#F2F2F2"/>
<path d="M70.8874 29.5938L34.3811 39.0418C34.0338 39.1317 33.665 39.0794 33.356 38.8965C33.047 38.7135 32.8231 38.4149 32.7335 38.0662C32.6439 37.7176 32.696 37.3475 32.8783 37.0374C33.0606 36.7273 33.3582 36.5026 33.7056 36.4127L70.2118 26.9648C70.5592 26.8749 70.9279 26.9271 71.2369 27.1101C71.5459 27.293 71.7698 27.5917 71.8594 27.9403C71.949 28.2889 71.8969 28.659 71.7146 28.9691C71.5323 29.2792 71.2348 29.5039 70.8874 29.5938Z" fill="#F2F2F2"/>
<path d="M69.453 46.4379L38.3499 54.4875C38.1779 54.532 37.9988 54.5421 37.8229 54.5172C37.647 54.4922 37.4778 54.4328 37.3248 54.3422C37.1718 54.2516 37.0381 54.1316 36.9312 53.9892C36.8244 53.8467 36.7466 53.6846 36.7023 53.5119C36.6579 53.3393 36.6479 53.1596 36.6727 52.9831C36.6976 52.8066 36.7568 52.6367 36.8471 52.4831C36.9373 52.3296 37.0569 52.1954 37.1988 52.0882C37.3407 51.981 37.5023 51.9029 37.6743 51.8584L68.7775 43.8088C68.9495 43.7643 69.1285 43.7542 69.3044 43.7792C69.4803 43.8041 69.6496 43.8635 69.8026 43.9541C69.9556 44.0447 70.0893 44.1647 70.1961 44.3071C70.3029 44.4496 70.3807 44.6117 70.4251 44.7844C70.4694 44.957 70.4795 45.1367 70.4546 45.3132C70.4298 45.4897 70.3706 45.6596 70.2803 45.8132C70.19 45.9667 70.0705 46.1009 69.9286 46.2081C69.7866 46.3153 69.625 46.3934 69.453 46.4379Z" fill="#F2F2F2"/>
<path d="M75.9963 49.4761L39.49 58.924C39.318 58.9686 39.139 58.9786 38.9631 58.9537C38.7872 58.9288 38.6179 58.8693 38.4649 58.7787C38.3119 58.6881 38.1782 58.5682 38.0714 58.4257C37.9646 58.2833 37.8868 58.1211 37.8424 57.9485C37.7981 57.7759 37.788 57.5962 37.8129 57.4196C37.8377 57.2431 37.8969 57.0732 37.9872 56.9197C38.0775 56.7662 38.197 56.632 38.3389 56.5248C38.4809 56.4176 38.6425 56.3395 38.8145 56.295L75.3207 46.847C75.6681 46.7571 76.0368 46.8094 76.3458 46.9923C76.6548 47.1753 76.8787 47.4739 76.9683 47.8226C77.0579 48.1712 77.0058 48.5413 76.8235 48.8514C76.6412 49.1615 76.3436 49.3862 75.9963 49.4761Z" fill="#F2F2F2"/>
<path d="M74.562 66.3201L43.4589 74.3698C43.1116 74.4594 42.743 74.4069 42.4342 74.224C42.1254 74.041 41.9017 73.7425 41.8121 73.394C41.7226 73.0455 41.7746 72.6756 41.9567 72.3656C42.1388 72.0556 42.4361 71.8308 42.7833 71.7407L73.8864 63.6911C74.2338 63.6012 74.6026 63.6534 74.9116 63.8364C75.2205 64.0193 75.4445 64.318 75.534 64.6666C75.6236 65.0153 75.5715 65.3853 75.3893 65.6954C75.207 66.0055 74.9094 66.2302 74.562 66.3201Z" fill="#F2F2F2"/>
<path d="M81.1051 69.3583L44.5989 78.8063C44.4268 78.851 44.2476 78.8612 44.0716 78.8364C43.8956 78.8116 43.7262 78.7522 43.5731 78.6616C43.42 78.571 43.2861 78.4511 43.1792 78.3086C43.0723 78.166 42.9945 78.0038 42.9501 77.8311C42.9057 77.6583 42.8957 77.4785 42.9206 77.3019C42.9455 77.1253 43.0048 76.9553 43.0952 76.8017C43.1856 76.6482 43.3052 76.5139 43.4473 76.4068C43.5894 76.2996 43.7512 76.2216 43.9233 76.1772L80.4295 66.7293C80.7769 66.6394 81.1457 66.6917 81.4547 66.8746C81.7636 67.0576 81.9876 67.3562 82.0771 67.7048C82.1667 68.0535 82.1146 68.4235 81.9324 68.7336C81.7501 69.0437 81.4525 69.2684 81.1051 69.3583Z" fill="#F2F2F2"/>
<path d="M27.9314 42.8589L16.9243 45.7076C16.7577 45.7505 16.581 45.7254 16.4329 45.6377C16.2847 45.55 16.1773 45.4069 16.1342 45.2398L13.6076 35.4069C13.5648 35.2397 13.5899 35.0624 13.6772 34.9137C13.7646 34.7651 13.9072 34.6573 14.0737 34.614L25.0808 31.7653C25.2473 31.7224 25.424 31.7476 25.5722 31.8353C25.7203 31.923 25.8277 32.066 25.8708 32.2331L28.3975 42.0661C28.4402 42.2332 28.4152 42.4106 28.3278 42.5592C28.2404 42.7079 28.0978 42.8157 27.9314 42.8589Z" fill="#A1B2CD" fill-opacity="0.2"/>
<path d="M33.0402 62.7412L22.0331 65.5899C21.8666 65.6328 21.6899 65.6076 21.5417 65.5199C21.3936 65.4322 21.2862 65.2892 21.2431 65.1221L18.7164 55.2891C18.6737 55.122 18.6987 54.9446 18.7861 54.796C18.8735 54.6474 19.0161 54.5396 19.1825 54.4963L30.1896 51.6476C30.3562 51.6047 30.5329 51.6298 30.681 51.7175C30.8291 51.8052 30.9365 51.9483 30.9797 52.1154L33.5063 61.9483C33.5491 62.1155 33.524 62.2929 33.4367 62.4415C33.3493 62.5901 33.2067 62.6979 33.0402 62.7412Z" fill="#A1B2CD" fill-opacity="0.2"/>
<path d="M38.1491 82.6235L27.142 85.4721C26.9755 85.5151 26.7987 85.4899 26.6506 85.4022C26.5025 85.3145 26.3951 85.1714 26.352 85.0044L23.8253 75.1714C23.7826 75.0043 23.8076 74.8269 23.895 74.6783C23.9824 74.5296 24.125 74.4218 24.2914 74.3786L35.2985 71.5299C35.4651 71.487 35.6418 71.5121 35.7899 71.5998C35.938 71.6875 36.0454 71.8306 36.0886 71.9976L38.6152 81.8306C38.658 81.9978 38.6329 82.1751 38.5456 82.3238C38.4582 82.4724 38.3156 82.5802 38.1491 82.6235Z" fill="#A1B2CD" fill-opacity="0.2"/>
<path d="M110.499 19.1851H46.9806C44.827 19.1875 42.7623 20.0472 41.2395 21.5754C39.7167 23.1037 38.8601 25.1758 38.8577 27.3371V102.188C38.8601 104.349 39.7167 106.421 41.2395 107.95C42.7623 109.478 44.827 110.337 46.9806 110.34H110.499C112.652 110.337 114.717 109.478 116.24 107.95C117.763 106.421 118.619 104.349 118.622 102.188V27.3371C118.619 25.1758 117.763 23.1037 116.24 21.5754C114.717 20.0472 112.652 19.1875 110.499 19.1851Z" fill="#A1B2CD" fill-opacity="0.2"/>
<path d="M110.499 21.5319H46.9806C45.447 21.5336 43.9766 22.1458 42.8922 23.2341C41.8078 24.3224 41.1978 25.798 41.196 27.3371V102.188C41.1978 103.727 41.8078 105.203 42.8922 106.291C43.9766 107.379 45.447 107.991 46.9806 107.993H110.499C112.032 107.991 113.503 107.379 114.587 106.291C115.672 105.203 116.282 103.727 116.283 102.188V27.3371C116.282 25.798 115.672 24.3224 114.587 23.2341C113.503 22.1458 112.032 21.5336 110.499 21.5319Z" fill="white"/>
<path d="M117.172 119.447C125.361 119.447 132 112.784 132 104.566C132 96.3469 125.361 89.6843 117.172 89.6843C108.983 89.6843 102.344 96.3469 102.344 104.566C102.344 112.784 108.983 119.447 117.172 119.447Z" fill="#1DC1F7"/>
<path d="M124.264 102.625H119.106V97.4485C119.106 96.9337 118.902 96.44 118.539 96.076C118.177 95.7119 117.685 95.5074 117.172 95.5074C116.659 95.5074 116.167 95.7119 115.804 96.076C115.441 96.44 115.238 96.9337 115.238 97.4485V102.625H110.08C109.567 102.625 109.075 102.829 108.712 103.193C108.35 103.557 108.146 104.051 108.146 104.566C108.146 105.08 108.35 105.574 108.712 105.938C109.075 106.302 109.567 106.507 110.08 106.507H115.238V111.683C115.238 112.198 115.441 112.691 115.804 113.055C116.167 113.419 116.659 113.624 117.172 113.624C117.685 113.624 118.177 113.419 118.539 113.055C118.902 112.691 119.106 112.198 119.106 111.683V106.507H124.264C124.776 106.507 125.268 106.302 125.631 105.938C125.994 105.574 126.198 105.08 126.198 104.566C126.198 104.051 125.994 103.557 125.631 103.193C125.268 102.829 124.776 102.625 124.264 102.625Z" fill="white"/>
<path d="M100.939 62.6622H68.8186C68.6408 62.6624 68.4647 62.6274 68.3004 62.5593C68.1362 62.4911 67.9869 62.3912 67.8611 62.2651C67.7353 62.139 67.6355 61.9893 67.5675 61.8245C67.4994 61.6597 67.4644 61.483 67.4644 61.3046C67.4644 61.1262 67.4994 60.9496 67.5675 60.7848C67.6355 60.62 67.7353 60.4702 67.8611 60.3442C67.9869 60.2181 68.1362 60.1181 68.3004 60.05C68.4647 59.9818 68.6408 59.9469 68.8186 59.9471H100.939C101.298 59.9475 101.641 60.0907 101.895 60.3452C102.148 60.5998 102.29 60.9448 102.29 61.3046C102.29 61.6644 102.148 62.0095 101.895 62.264C101.641 62.5186 101.298 62.6618 100.939 62.6622Z" fill="#A1B2CD" fill-opacity="0.2"/>
<path d="M106.519 67.2438H68.8186C68.6408 67.244 68.4647 67.209 68.3004 67.1409C68.1362 67.0728 67.9869 66.9728 67.8611 66.8467C67.7353 66.7207 67.6355 66.5709 67.5675 66.4061C67.4994 66.2413 67.4644 66.0647 67.4644 65.8863C67.4644 65.7079 67.4994 65.5312 67.5675 65.3664C67.6355 65.2016 67.7353 65.0519 67.8611 64.9258C67.9869 64.7997 68.1362 64.6998 68.3004 64.6316C68.4647 64.5635 68.6408 64.5285 68.8186 64.5287H106.519C106.878 64.5287 107.222 64.6718 107.476 64.9264C107.729 65.1809 107.872 65.5262 107.872 65.8863C107.872 66.2463 107.729 66.5916 107.476 66.8462C107.222 67.1008 106.878 67.2438 106.519 67.2438Z" fill="#A1B2CD" fill-opacity="0.2"/>
<path d="M100.939 83.1949H68.8186C68.6408 83.1951 68.4647 83.1601 68.3004 83.092C68.1362 83.0238 67.9869 82.9239 67.8611 82.7978C67.7353 82.6717 67.6355 82.522 67.5675 82.3572C67.4994 82.1924 67.4644 82.0157 67.4644 81.8373C67.4644 81.6589 67.4994 81.4823 67.5675 81.3175C67.6355 81.1527 67.7353 81.003 67.8611 80.8769C67.9869 80.7508 68.1362 80.6508 68.3004 80.5827C68.4647 80.5146 68.6408 80.4796 68.8186 80.4798H100.939C101.298 80.4798 101.642 80.6228 101.896 80.8774C102.149 81.132 102.292 81.4773 102.292 81.8373C102.292 82.1974 102.149 82.5427 101.896 82.7973C101.642 83.0518 101.298 83.1949 100.939 83.1949Z" fill="#A1B2CD" fill-opacity="0.2"/>
<path d="M106.519 87.7765H68.8186C68.6408 87.7767 68.4647 87.7418 68.3004 87.6736C68.1362 87.6055 67.9869 87.5055 67.8611 87.3795C67.7353 87.2534 67.6355 87.1037 67.5675 86.9389C67.4994 86.7741 67.4644 86.5974 67.4644 86.419C67.4644 86.2406 67.4994 86.0639 67.5675 85.8991C67.6355 85.7343 67.7353 85.5846 67.8611 85.4585C67.9869 85.3325 68.1362 85.2325 68.3004 85.1644C68.4647 85.0962 68.6408 85.0613 68.8186 85.0615H106.519C106.697 85.0613 106.873 85.0962 107.037 85.1644C107.202 85.2325 107.351 85.3325 107.477 85.4585C107.602 85.5846 107.702 85.7343 107.77 85.8991C107.838 86.0639 107.873 86.2406 107.873 86.419C107.873 86.5974 107.838 86.7741 107.77 86.9389C107.702 87.1037 107.602 87.2534 107.477 87.3795C107.351 87.5055 107.202 87.6055 107.037 87.6736C106.873 87.7418 106.697 87.7767 106.519 87.7765Z" fill="#A1B2CD" fill-opacity="0.2"/>
<path d="M61.6232 69.3237H50.256C50.0841 69.3235 49.9192 69.2549 49.7976 69.1329C49.676 69.0108 49.6076 68.8454 49.6074 68.6728V58.5181C49.6076 58.3455 49.676 58.1801 49.7976 58.058C49.9192 57.936 50.0841 57.8674 50.256 57.8672H61.6232C61.7952 57.8674 61.9601 57.936 62.0817 58.058C62.2033 58.1801 62.2717 58.3455 62.2719 58.5181V68.6728C62.2717 68.8454 62.2033 69.0108 62.0817 69.1329C61.9601 69.2549 61.7952 69.3235 61.6232 69.3237Z" fill="#A1B2CD" fill-opacity="0.2"/>
<path d="M61.6232 89.8564H50.256C50.0841 89.8562 49.9192 89.7876 49.7976 89.6656C49.676 89.5435 49.6076 89.3781 49.6074 89.2055V79.0508C49.6076 78.8783 49.676 78.7128 49.7976 78.5908C49.9192 78.4687 50.0841 78.4001 50.256 78.3999H61.6232C61.7952 78.4001 61.9601 78.4687 62.0817 78.5908C62.2033 78.7128 62.2717 78.8783 62.2719 79.0508V89.2055C62.2717 89.3781 62.2033 89.5435 62.0817 89.6656C61.9601 89.7876 61.7952 89.8562 61.6232 89.8564Z" fill="#A1B2CD" fill-opacity="0.2"/>
<path d="M100.975 39.8052H77.2936C76.9348 39.8052 76.5908 39.6621 76.3371 39.4075C76.0834 39.153 75.9409 38.8077 75.9409 38.4476C75.9409 38.0876 76.0834 37.7423 76.3371 37.4877C76.5908 37.2331 76.9348 37.0901 77.2936 37.0901H100.975C101.334 37.0901 101.678 37.2331 101.931 37.4877C102.185 37.7423 102.328 38.0876 102.328 38.4476C102.328 38.8077 102.185 39.153 101.931 39.4075C101.678 39.6621 101.334 39.8052 100.975 39.8052Z" fill="#A1B2CD" fill-opacity="0.2"/>
<path d="M106.555 44.3868H77.2936C77.116 44.3868 76.9401 44.3517 76.776 44.2835C76.6118 44.2153 76.4627 44.1153 76.3371 43.9892C76.2115 43.8632 76.1119 43.7135 76.0439 43.5488C75.9759 43.3841 75.9409 43.2076 75.9409 43.0293C75.9409 42.851 75.9759 42.6745 76.0439 42.5098C76.1119 42.3451 76.2115 42.1954 76.3371 42.0694C76.4627 41.9433 76.6118 41.8433 76.776 41.7751C76.9401 41.7069 77.116 41.6718 77.2936 41.6718H106.555C106.913 41.6718 107.258 41.8148 107.511 42.0694C107.765 42.3239 107.907 42.6692 107.907 43.0293C107.907 43.3893 107.765 43.7346 107.511 43.9892C107.258 44.2438 106.913 44.3868 106.555 44.3868Z" fill="#A1B2CD" fill-opacity="0.2"/>
<path d="M72.0525 49.9393H50.2204C50.0484 49.9391 49.8836 49.8705 49.762 49.7484C49.6404 49.6264 49.572 49.4609 49.5718 49.2884V32.1886C49.572 32.016 49.6404 31.8506 49.762 31.7285C49.8836 31.6065 50.0484 31.5378 50.2204 31.5377H72.0525C72.2245 31.5378 72.3893 31.6065 72.5109 31.7285C72.6325 31.8506 72.7009 32.016 72.7011 32.1886V49.2884C72.7009 49.4609 72.6325 49.6264 72.5109 49.7484C72.3893 49.8705 72.2245 49.9391 72.0525 49.9393Z" fill="#1DC1F7"/>
</g>
<defs>
<clipPath id="clip0_1_394">
<rect width="132" height="118.894" fill="white" transform="translate(0 0.553223)"/>
</clipPath>
</defs>
</svg>
