<svg width="470" height="338" viewBox="0 0 470 338" fill="none" xmlns="http://www.w3.org/2000/svg">
<g clip-path="url(#clip0_7_450)">
<path opacity="0.1" d="M5.56577 183.755C12.987 215.465 28.6973 242.877 53.5217 256.181C105.124 283.793 221.491 269.549 308.336 253.189C352.221 244.95 392.055 222.186 421.424 188.563L5.56577 183.755Z" fill="#EEF5FF"/>
<path opacity="0.1" d="M460.993 34.4928H413.341C412.249 34.4928 411.202 34.0592 410.43 33.2874C409.658 32.5156 409.224 31.4688 409.224 30.3773C409.224 29.2858 409.658 28.239 410.43 27.4671C411.202 26.6953 412.249 26.2617 413.341 26.2617H421.578C420.509 26.2273 419.495 25.7784 418.75 25.0099C418.006 24.2415 417.59 23.2137 417.59 22.1441C417.59 21.0744 418.006 20.0466 418.75 19.2782C419.495 18.5097 420.509 18.0608 421.578 18.0264H415.696C414.627 17.9919 413.613 17.543 412.868 16.7746C412.124 16.0061 411.708 14.9784 411.708 13.9087C411.708 12.839 412.124 11.8113 412.868 11.0428C413.613 10.2744 414.627 9.82547 415.696 9.79102H440.567C435.049 7.22682 428.598 5.40197 421.164 4.44467C353.347 -4.26079 329.133 1.50011 320.592 7.43623C310.055 14.7442 298.299 20.1205 285.735 22.7103C243.892 31.3388 165.64 41.7239 94.7147 19.3854C59.4638 8.27387 33.2672 27.0438 17.5611 58.3954H469.265C468.675 49.284 466.909 40.8734 463.669 33.5056C462.925 34.1453 461.975 34.4957 460.993 34.4928Z" fill="#EEF5FF"/>
<path opacity="0.1" d="M1.5217 117.569C-0.308519 136.01 0.312466 154.613 3.36846 172.891L421.745 188.191C433.392 174.797 443.171 159.887 450.814 143.869L1.5217 117.569ZM166.995 157.032H158.757C159.849 157.032 160.896 157.465 161.668 158.237C162.44 159.009 162.874 160.056 162.874 161.147C162.874 162.239 162.44 163.285 161.668 164.057C160.896 164.829 159.849 165.263 158.757 165.263H111.105C110.013 165.263 108.966 164.829 108.194 164.057C107.422 163.285 106.988 162.239 106.988 161.147C106.988 160.056 107.422 159.009 108.194 158.237C108.966 157.465 110.013 157.032 111.105 157.032H119.342C118.273 156.997 117.259 156.548 116.515 155.78C115.77 155.011 115.354 153.984 115.354 152.914C115.354 151.844 115.77 150.817 116.515 150.048C117.259 149.28 118.273 148.831 119.342 148.796H113.46C112.391 148.762 111.377 148.313 110.632 147.544C109.888 146.776 109.472 145.748 109.472 144.679C109.472 143.609 109.888 142.581 110.632 141.813C111.377 141.044 112.391 140.595 113.46 140.561H161.113C162.182 140.595 163.196 141.044 163.94 141.813C164.685 142.581 165.101 143.609 165.101 144.679C165.101 145.748 164.685 146.776 163.94 147.544C163.196 148.313 162.182 148.762 161.113 148.796H166.995C168.064 148.831 169.078 149.28 169.823 150.048C170.567 150.817 170.983 151.844 170.983 152.914C170.983 153.984 170.567 155.011 169.823 155.78C169.078 156.548 168.064 156.997 166.995 157.032Z" fill="#EEF5FF"/>
<path opacity="0.1" d="M469.286 58.6689L12.521 69.7805C6.96366 84.0588 3.30007 100.192 1.5901 116.932H461.284C464.284 107.103 466.504 97.053 467.923 86.8751C469.291 77.0414 469.838 67.5283 469.286 58.6689ZM94.3214 95.0635H86.0836C86.6243 95.0635 87.1596 95.1699 87.659 95.3768C88.1585 95.5836 88.6123 95.8867 88.9946 96.2689C89.3769 96.6511 89.6801 97.1048 89.887 97.6041C90.0939 98.1034 90.2004 98.6386 90.2004 99.179C90.2004 99.7195 90.0939 100.255 89.887 100.754C89.6801 101.253 89.3769 101.707 88.9946 102.089C88.6123 102.471 88.1585 102.774 87.659 102.981C87.1596 103.188 86.6243 103.295 86.0836 103.295H38.4312C37.3394 103.295 36.2923 102.861 35.5203 102.089C34.7482 101.317 34.3145 100.271 34.3145 99.179C34.3145 98.0875 34.7482 97.0407 35.5203 96.2689C36.2923 95.4971 37.3394 95.0635 38.4312 95.0635H46.669C45.5996 95.029 44.5855 94.5801 43.8412 93.8117C43.0969 93.0432 42.6807 92.0155 42.6807 90.9458C42.6807 89.8761 43.0969 88.8484 43.8412 88.08C44.5855 87.3115 45.5996 86.8626 46.669 86.8281H40.7867C39.7173 86.7937 38.7032 86.3448 37.9589 85.5763C37.2146 84.8079 36.7984 83.7801 36.7984 82.7105C36.7984 81.6408 37.2146 80.6131 37.9589 79.8446C38.7032 79.0761 39.7173 78.6272 40.7867 78.5928H88.4391C89.5085 78.6272 90.5226 79.0761 91.2669 79.8446C92.0113 80.6131 92.4274 81.6408 92.4274 82.7105C92.4274 83.7801 92.0113 84.8079 91.2669 85.5763C90.5226 86.3448 89.5085 86.7937 88.4391 86.8281H94.3214C95.3908 86.8626 96.4049 87.3115 97.1492 88.08C97.8935 88.8484 98.3097 89.8761 98.3097 90.9458C98.3097 92.0155 97.8935 93.0432 97.1492 93.8117C96.4049 94.5801 95.3908 95.029 94.3214 95.0635Z" fill="#EEF5FF"/>
<path opacity="0.1" d="M241.442 338C323.8 338 390.564 334.388 390.564 329.931C390.564 325.475 323.8 321.863 241.442 321.863C159.085 321.863 92.3207 325.475 92.3207 329.931C92.3207 334.388 159.085 338 241.442 338Z" fill="#17407F"/>
<path d="M365.239 270.6C365.239 270.6 367.586 273.673 364.153 278.293C360.721 282.912 357.891 286.84 359.024 289.733C359.024 289.733 364.2 281.122 368.428 281.002C372.656 280.882 369.873 275.78 365.239 270.6Z" fill="#07A5D9"/>
<path opacity="0.1" d="M365.239 270.6C365.442 270.897 365.603 271.221 365.718 271.562C369.831 276.395 372.019 280.904 368.069 281.015C364.384 281.122 359.968 287.703 358.912 289.366C358.946 289.495 358.987 289.622 359.036 289.746C359.036 289.746 364.213 281.135 368.441 281.015C372.669 280.895 369.873 275.78 365.239 270.6Z" fill="black"/>
<path d="M369.604 274.515C369.604 275.596 369.484 276.472 369.335 276.472C369.185 276.472 369.061 275.596 369.061 274.515C369.061 273.433 369.215 273.942 369.365 273.942C369.514 273.942 369.604 273.433 369.604 274.515Z" fill="#FFD037"/>
<path d="M371.1 275.805C370.151 276.322 369.326 276.634 369.253 276.502C369.181 276.369 369.895 275.844 370.844 275.327C371.793 274.81 371.417 275.186 371.489 275.327C371.562 275.468 372.049 275.288 371.1 275.805Z" fill="#FFD037"/>
<path d="M352.834 270.6C352.834 270.6 350.487 273.673 353.919 278.293C357.352 282.912 360.178 286.84 359.049 289.733C359.049 289.733 353.868 281.122 349.644 281.002C345.421 280.882 348.195 275.78 352.834 270.6Z" fill="#07A5D9"/>
<path opacity="0.1" d="M352.834 270.6C352.629 270.896 352.468 271.22 352.355 271.562C348.242 276.395 346.049 280.904 350.004 281.015C353.684 281.122 358.126 287.703 359.16 289.366C359.126 289.494 359.083 289.618 359.036 289.746C359.036 289.746 353.855 281.135 349.632 281.015C345.408 280.895 348.195 275.78 352.834 270.6Z" fill="black"/>
<path d="M348.469 274.515C348.469 275.596 348.589 276.472 348.738 276.472C348.888 276.472 349.012 275.596 349.012 274.515C349.012 273.433 348.858 273.942 348.708 273.942C348.559 273.942 348.469 273.433 348.469 274.515Z" fill="#FFD037"/>
<path d="M346.968 275.805C347.917 276.322 348.747 276.634 348.819 276.502C348.892 276.369 348.178 275.844 347.229 275.327C346.28 274.81 346.656 275.186 346.584 275.327C346.511 275.468 346.019 275.288 346.968 275.805Z" fill="#FFD037"/>
<path d="M349.217 289.344C349.217 289.344 355.783 289.139 357.767 287.733C359.75 286.327 367.868 284.639 368.36 286.878C368.852 289.118 378.226 298.114 370.814 298.174C363.401 298.234 353.59 297.02 351.615 295.819C349.64 294.618 349.217 289.344 349.217 289.344Z" fill="#A8A8A8"/>
<path opacity="0.2" d="M370.942 297.409C363.529 297.468 353.718 296.255 351.743 295.054C350.239 294.135 349.64 290.849 349.439 289.336H349.221C349.221 289.336 349.649 294.626 351.611 295.832C353.573 297.037 363.397 298.246 370.809 298.186C372.947 298.186 373.691 297.409 373.648 296.28C373.349 296.973 372.532 297.396 370.942 297.409Z" fill="black"/>
<path d="M115.593 291.746C116.378 291.106 116.95 290.243 117.235 289.272C117.444 288.293 117.025 287.135 116.089 286.754C115.038 286.353 113.913 287.083 113.058 287.819C112.203 288.554 111.233 289.396 110.117 289.237C110.691 288.718 111.12 288.059 111.363 287.324C111.606 286.589 111.654 285.804 111.502 285.045C111.454 284.731 111.321 284.435 111.117 284.19C110.532 283.566 109.476 283.831 108.775 284.323C106.552 285.887 105.932 288.908 105.919 291.622C105.697 290.643 105.885 289.622 105.881 288.631C105.876 287.639 105.599 286.494 104.752 285.968C104.227 285.688 103.637 285.549 103.042 285.566C102.042 285.528 100.93 285.63 100.246 286.357C99.3914 287.267 99.618 288.789 100.358 289.776C101.097 290.763 102.217 291.404 103.247 292.092C104.076 292.585 104.784 293.258 105.316 294.062C105.377 294.176 105.428 294.295 105.47 294.417H111.733C113.134 293.705 114.433 292.806 115.593 291.746Z" fill="#07A5D9"/>
<path d="M65.8206 298.49C65.8206 298.49 59.8101 278.1 66.9449 263.095C69.9821 256.819 70.9002 249.727 69.5611 242.885C68.9005 239.645 67.9432 236.472 66.7012 233.406" stroke="#535461" stroke-width="2" stroke-miterlimit="10"/>
<path d="M71.1257 223.919C71.1257 226.419 66.6029 233.667 66.6029 233.667C66.6029 233.667 62.0758 226.402 62.0758 223.919C62.1119 222.743 62.6045 221.628 63.4491 220.809C64.2938 219.99 65.4242 219.532 66.6007 219.532C67.7773 219.532 68.9077 219.99 69.7523 220.809C70.597 221.628 71.0896 222.743 71.1257 223.919Z" fill="#07A5D9"/>
<path d="M78.6068 237.761C77.2517 239.86 69.5098 243.484 69.5098 243.484C69.5098 243.484 69.6509 234.936 71.0103 232.842C71.6783 231.871 72.699 231.198 73.8554 230.968C75.0117 230.737 76.2124 230.967 77.202 231.608C78.1917 232.248 78.8922 233.25 79.1545 234.399C79.4169 235.548 79.2204 236.755 78.6068 237.761Z" fill="#07A5D9"/>
<path d="M78.2819 261.416C76.0504 262.54 67.5391 261.762 67.5391 261.762C67.5391 261.762 71.9764 254.458 74.2079 253.334C74.7401 253.053 75.3232 252.88 75.923 252.826C76.5228 252.772 77.1273 252.839 77.7011 253.022C78.2749 253.205 78.8065 253.5 79.2646 253.891C79.7228 254.281 80.0984 254.759 80.3694 255.297C80.6405 255.835 80.8015 256.421 80.843 257.022C80.8846 257.622 80.8058 258.225 80.6114 258.795C80.417 259.365 80.1109 259.89 79.7109 260.34C79.3109 260.79 78.8251 261.156 78.2819 261.416Z" fill="#07A5D9"/>
<path d="M74.0027 279.259C71.9935 280.746 63.4736 281.395 63.4736 281.395C63.4736 281.395 66.6114 273.451 68.6035 271.963C69.0778 271.575 69.6261 271.286 70.2152 271.116C70.8043 270.946 71.4219 270.897 72.0305 270.972C72.6391 271.048 73.226 271.246 73.7556 271.555C74.2853 271.864 74.7465 272.277 75.1115 272.77C75.4765 273.263 75.7375 273.824 75.8788 274.421C76.0201 275.018 76.0386 275.637 75.9334 276.241C75.8281 276.845 75.6011 277.421 75.2663 277.934C74.9315 278.448 74.4958 278.888 73.9856 279.229L74.0027 279.259Z" fill="#07A5D9"/>
<path d="M60.011 243.966C61.8022 245.706 70.1553 247.514 70.1553 247.514C70.1553 247.514 68.1076 239.218 66.3079 237.475C65.8853 237.043 65.3805 236.7 64.8233 236.466C64.2661 236.233 63.6677 236.113 63.0635 236.114C62.4592 236.115 61.8613 236.237 61.305 236.473C60.7486 236.709 60.2451 237.054 59.8242 237.487C59.4032 237.92 59.0733 238.434 58.8539 238.997C58.6345 239.559 58.53 240.161 58.5466 240.764C58.5632 241.368 58.7006 241.963 58.9506 242.513C59.2007 243.063 59.5583 243.557 60.0024 243.966H60.011Z" fill="#07A5D9"/>
<path d="M55.2701 264.895C57.5016 266.019 66.0129 265.241 66.0129 265.241C66.0129 265.241 61.5756 257.941 59.3441 256.813C58.2755 256.302 57.0488 256.229 55.9275 256.612C54.8061 256.994 53.8793 257.801 53.3461 258.858C52.8129 259.916 52.7157 261.141 53.0754 262.269C53.4351 263.398 54.2231 264.34 55.2701 264.895Z" fill="#07A5D9"/>
<path d="M53.4575 285.87C55.4667 287.353 63.9824 288.007 63.9824 288.007C63.9824 288.007 60.8489 280.062 58.8525 278.575C57.8857 277.93 56.7079 277.682 55.563 277.881C54.4182 278.081 53.3939 278.712 52.7022 279.646C52.0106 280.58 51.7046 281.744 51.8476 282.897C51.9905 284.05 52.5716 285.103 53.4704 285.84L53.4575 285.87Z" fill="#07A5D9"/>
<path d="M71.1257 223.919C71.1257 226.419 66.6029 233.667 66.6029 233.667C66.6029 233.667 62.0758 226.402 62.0758 223.919C62.1119 222.743 62.6045 221.628 63.4491 220.809C64.2938 219.99 65.4242 219.532 66.6007 219.532C67.7773 219.532 68.9077 219.99 69.7523 220.809C70.597 221.628 71.0896 222.743 71.1257 223.919Z" fill="#07A5D9"/>
<path d="M78.6068 237.761C77.2517 239.86 69.5098 243.484 69.5098 243.484C69.5098 243.484 69.6509 234.936 71.0103 232.842C71.6783 231.871 72.699 231.198 73.8554 230.968C75.0117 230.737 76.2124 230.967 77.202 231.608C78.1917 232.248 78.8922 233.25 79.1545 234.399C79.4169 235.548 79.2204 236.755 78.6068 237.761Z" fill="#07A5D9"/>
<path d="M78.2819 261.416C76.0504 262.54 67.5391 261.762 67.5391 261.762C67.5391 261.762 71.9764 254.458 74.2079 253.334C74.7401 253.053 75.3232 252.88 75.923 252.826C76.5228 252.772 77.1273 252.839 77.7011 253.022C78.2749 253.205 78.8065 253.5 79.2646 253.891C79.7228 254.281 80.0984 254.759 80.3694 255.297C80.6405 255.835 80.8015 256.421 80.843 257.022C80.8846 257.622 80.8058 258.225 80.6114 258.795C80.417 259.365 80.1109 259.89 79.7109 260.34C79.3109 260.79 78.8251 261.156 78.2819 261.416Z" fill="#07A5D9"/>
<path d="M74.0027 279.259C71.9935 280.746 63.4736 281.395 63.4736 281.395C63.4736 281.395 66.6114 273.451 68.6035 271.963C69.0778 271.575 69.6261 271.286 70.2152 271.116C70.8043 270.946 71.4219 270.897 72.0305 270.972C72.6391 271.048 73.226 271.246 73.7556 271.555C74.2853 271.864 74.7465 272.277 75.1115 272.77C75.4765 273.263 75.7375 273.824 75.8788 274.421C76.0201 275.018 76.0386 275.637 75.9334 276.241C75.8281 276.845 75.6011 277.421 75.2663 277.934C74.9315 278.448 74.4958 278.888 73.9856 279.229L74.0027 279.259Z" fill="#07A5D9"/>
<path d="M60.011 243.966C61.8022 245.706 70.1553 247.514 70.1553 247.514C70.1553 247.514 68.1076 239.218 66.3079 237.475C65.8853 237.043 65.3805 236.7 64.8233 236.466C64.2661 236.233 63.6677 236.113 63.0635 236.114C62.4592 236.115 61.8613 236.237 61.305 236.473C60.7486 236.709 60.2451 237.054 59.8242 237.487C59.4032 237.92 59.0733 238.434 58.8539 238.997C58.6345 239.559 58.53 240.161 58.5466 240.764C58.5632 241.368 58.7006 241.963 58.9506 242.513C59.2007 243.063 59.5583 243.557 60.0024 243.966H60.011Z" fill="#07A5D9"/>
<path d="M55.2701 264.895C57.5016 266.019 66.0129 265.241 66.0129 265.241C66.0129 265.241 61.5756 257.941 59.3441 256.813C58.2755 256.302 57.0488 256.229 55.9275 256.612C54.8061 256.994 53.8793 257.801 53.3461 258.858C52.8129 259.916 52.7157 261.141 53.0754 262.269C53.4351 263.398 54.2231 264.34 55.2701 264.895Z" fill="#07A5D9"/>
<path d="M53.4575 285.87C55.4667 287.353 63.9824 288.007 63.9824 288.007C63.9824 288.007 60.8489 280.062 58.8525 278.575C57.8857 277.93 56.7079 277.682 55.563 277.881C54.4182 278.081 53.3939 278.712 52.7022 279.646C52.0106 280.58 51.7046 281.744 51.8476 282.897C51.9905 284.05 52.5716 285.103 53.4704 285.84L53.4575 285.87Z" fill="#07A5D9"/>
<path d="M51.6065 297.208C51.6065 297.208 58.9251 295.755 60.8745 293.819C62.8239 291.883 71.6045 288.494 72.5792 290.913C73.5539 293.332 85.7459 301.563 77.4526 303.016C69.1593 304.469 57.9462 304.952 55.5095 303.982C53.0728 303.012 51.6065 297.208 51.6065 297.208Z" fill="#A8A8A8"/>
<path opacity="0.2" d="M77.4654 302.11C69.1764 303.563 57.959 304.046 55.5223 303.08C53.667 302.341 52.376 298.806 51.8673 297.152L51.6065 297.208C51.6065 297.208 53.0728 303.016 55.5095 303.982C57.9462 304.948 69.1636 304.465 77.4526 303.016C79.8465 302.588 80.5305 301.61 80.274 300.366C80.0817 301.174 79.2481 301.798 77.4654 302.11Z" fill="black"/>
<path d="M310.119 111.961C312.414 109.397 311.517 105.401 311.517 105.401C311.517 105.401 300.684 77.8021 299.483 77.4986C298.281 77.1952 295.268 70.2334 295.268 70.2334C295.268 70.2334 266.382 42.7837 265.343 42.7837C264.304 42.7837 253.758 35.2022 252.407 35.0526C251.057 34.903 248.945 34.1423 246.688 32.9158C244.43 31.6892 221.56 33.0696 220.658 34.1295C219.756 35.1894 215.528 35.9501 215.528 35.9501C215.528 35.9501 206.952 36.4031 205.747 37.9202C204.541 39.4374 195.671 40.2408 195.671 40.2408C195.671 40.2408 191.306 41.8648 197.231 46.1769C195.333 46.4761 193.114 46.7069 190.862 46.8693C190.297 46.9077 189.724 46.9462 189.152 46.9761H188.814C188.436 45.8325 187.698 44.8417 186.711 44.1512C186.065 43.8008 185.398 43.4911 184.714 43.2238C183.655 42.6607 182.663 41.9797 181.756 41.1939C177.37 37.7071 172.69 34.607 167.769 31.9285C167.009 31.453 166.161 31.1347 165.276 30.9926C163.442 30.8174 161.805 32.1038 160.01 32.5354C156.855 33.2918 153.674 31.3687 150.43 31.3388C146.377 31.3003 142.688 34.4543 141.452 38.3433C140.995 39.7835 140.79 41.3862 139.802 42.5272C138.52 44.0187 136.352 44.2367 134.595 45.1214C133.322 45.7852 132.255 46.7851 131.511 48.0125C130.766 49.2398 130.372 50.6477 130.372 52.0832V52.1173C130.372 52.3438 130.372 52.5704 130.41 52.7969C130.611 54.626 131.457 56.3141 132.077 58.0492C132.714 59.827 133.117 61.6803 133.274 63.5622C133.276 63.5821 133.276 63.6022 133.274 63.6221C133.3 63.934 133.321 64.246 133.334 64.5623C133.334 64.6264 133.334 64.6947 133.334 64.7631C133.334 65.0623 133.334 65.3657 133.334 65.6691C133.334 67.3017 133.279 68.947 133.283 70.5796V70.6651V71.4044C133.283 71.4642 133.283 71.5241 133.283 71.5839C133.283 71.8018 133.283 72.0113 133.309 72.242V72.4728C133.309 72.6737 133.338 72.8788 133.36 73.0797C133.36 73.1651 133.36 73.2549 133.381 73.3404C133.381 73.537 133.428 73.7293 133.454 73.9216L133.492 74.1951C133.522 74.3874 133.556 74.5797 133.591 74.7721L133.642 75.037C133.685 75.2422 133.736 75.4644 133.787 75.6524C133.809 75.7251 133.822 75.7935 133.839 75.8661C133.916 76.151 134.001 76.4245 134.095 76.6867C134.735 78.4811 135.792 80.0982 137.179 81.405C138.565 82.7118 140.242 83.6711 142.072 84.204C142.761 84.3939 143.474 84.4832 144.188 84.469C145.471 84.4391 146.698 84.0416 147.458 83.1655C147.647 83.3792 147.83 83.5929 148.027 83.8066C150.815 86.838 154.293 89.1525 158.167 90.554C162.04 91.9555 166.195 92.4026 170.278 91.8574C174.361 91.3122 178.252 89.7908 181.622 87.4221C184.991 85.0535 187.74 81.9075 189.635 78.2508C190.084 78.1525 190.528 78.0628 190.977 77.9773C191.755 77.832 192.537 77.6952 193.324 77.5499L194.081 77.4303L194.38 77.379C198.227 76.7721 201.964 76.3661 204.64 76.0969L194.063 77.4089C194.063 77.4089 191.499 89.7213 190.759 91.0846C190.019 92.4479 193.324 94.7215 193.324 94.7215C193.324 94.7215 196.184 98.2088 196.184 99.273C196.184 100.337 199.493 103.367 200.395 105.034C200.509 105.245 200.653 105.439 200.822 105.611C200.154 105.869 199.538 106.244 199.001 106.718C196.911 108.696 197.607 112.167 196.65 114.885C196.051 116.594 194.799 117.979 193.593 119.325C193.16 119.764 192.797 120.267 192.516 120.817C192.359 121.18 192.263 121.567 192.23 121.962C192.208 122.181 192.2 122.4 192.204 122.62V122.697C192.204 122.868 192.204 123.035 192.238 123.201C192.238 123.274 192.238 123.347 192.238 123.419C192.448 125.206 193.055 126.932 193.238 128.719C193.422 130.505 193.2 132.304 193.568 134.044C193.695 134.65 193.893 135.24 194.158 135.8L188.036 142.638C188.036 142.638 187.997 142.975 187.985 143.531C182.88 147.766 174.989 155.758 177.806 162.805C178.114 163.577 178.399 164.317 178.661 165.023C176.588 166.344 175.904 167.912 179.012 169.477C179.503 169.724 179.978 169.938 180.444 170.13C182.038 174.81 182.662 176.113 185.334 172.665C185.621 172.289 185.954 171.81 186.317 171.293C190.079 171.216 192.255 169.477 192.255 169.477C192.255 169.477 202.784 168.87 205.507 170.541C206.871 171.395 210.077 171.566 212.916 171.545C212.878 174.602 213.021 177.659 213.343 180.699C213.343 180.699 212.89 193.589 214.096 196.319C215.301 199.05 215.968 203.751 215.968 203.751C215.968 203.751 213.946 208.298 215.147 210.726C216.349 213.153 214.096 216.641 214.096 216.641V225.585L214.951 225.526C214.887 226.128 214.805 226.761 214.698 227.363C214.451 228.761 214.079 230.013 213.506 230.419C212.001 231.5 211.851 237.257 211.851 237.257C211.851 237.257 209.445 244.236 209.893 245.449C210.342 246.663 207.038 249.086 207.79 250.907C208.543 252.728 210.082 264.249 211.42 267.574C212.758 270.899 208.692 270.002 208.692 270.002L209.893 278.643C209.893 278.643 211.099 287.438 210.197 288.045C209.295 288.652 204.105 293.05 207.675 295.627C207.953 295.827 208.235 296.011 208.53 296.186C208.546 296.586 208.536 296.985 208.5 297.383C208.431 298.063 208.26 298.605 207.88 298.665C206.82 298.819 204.712 299.879 204.268 299.426C203.823 298.973 201.275 300.571 198.71 301.093L198.356 301.148L195.025 300.293C190.207 298.458 184.918 298.263 179.978 299.738C179.978 299.738 177.562 300.114 176.391 301.917C175.797 302.841 175.536 304.14 176.066 305.952C177.674 311.311 188.63 313.157 188.63 313.157C188.63 313.157 192.426 313.939 196.988 314.973C196.838 314.973 196.684 314.973 196.53 314.973C195.271 314.965 194.055 315.428 193.121 316.272C192.187 317.116 191.604 318.28 191.486 319.533C191.368 320.786 191.724 322.037 192.485 323.041C193.245 324.044 194.354 324.726 195.592 324.952C196.83 325.178 198.109 324.931 199.174 324.261C200.24 323.591 201.016 322.546 201.348 321.332C201.681 320.118 201.546 318.824 200.971 317.704C200.395 316.585 199.421 315.722 198.24 315.285C203.37 316.465 209.051 317.901 211.36 318.914C213.078 319.561 214.84 320.089 216.631 320.495C216.719 321.556 217.144 322.56 217.843 323.363C218.542 324.166 219.479 324.725 220.517 324.958C221.556 325.192 222.642 325.088 223.618 324.662C224.593 324.236 225.407 323.51 225.941 322.589C232.922 324.046 239.647 325.282 239.647 325.282L250.877 325.465H250.954C249.63 325.474 248.364 326.008 247.433 326.948C246.502 327.888 245.982 329.159 245.987 330.483C245.991 331.806 246.52 333.073 247.457 334.007C248.395 334.941 249.665 335.466 250.988 335.466C252.312 335.466 253.581 334.941 254.519 334.007C255.456 333.073 255.985 331.806 255.99 330.483C255.994 329.159 255.474 327.888 254.543 326.948C253.612 326.008 252.346 325.474 251.022 325.465L268.024 325.743C267.82 326.435 267.767 327.162 267.87 327.876C267.972 328.59 268.227 329.273 268.618 329.879C269.009 330.486 269.525 331.001 270.133 331.389C270.741 331.778 271.425 332.031 272.139 332.131C272.854 332.231 273.581 332.177 274.272 331.97C274.964 331.764 275.602 331.411 276.145 330.936C276.687 330.461 277.121 329.874 277.416 329.216C277.712 328.558 277.862 327.845 277.856 327.124C277.855 326.711 277.803 326.301 277.702 325.901L292.698 326.145L295.691 322.854C295.858 322.534 295.958 322.184 295.986 321.824C296.076 320.743 295.516 319.102 291.685 318.405C291.403 318.354 283.589 318.478 276.685 318.593V315.884C276.685 315.884 276.492 314.392 276.373 312.636C276.338 312.119 276.308 311.58 276.296 311.05C276.686 311.318 277.12 311.516 277.578 311.636C280.438 312.093 284.35 303.751 284.35 303.751C284.35 303.751 284.35 299.05 285.252 295.259C286.154 291.468 287.816 278.729 287.816 278.729L291.433 263.416C291.433 263.416 292.929 232.175 292.177 230.962C291.424 229.748 293.083 227.624 293.083 227.624C293.083 227.624 294.284 220.953 292.48 218.679C290.676 216.406 293.532 214.128 293.532 214.128C293.532 214.128 294.284 206.243 292.177 203.213C290.069 200.183 293.164 198.059 293.164 198.059L293.917 185.776C297.076 182.592 299.932 163.639 300.085 159.545C300.125 157.24 300.637 154.968 301.59 152.869C301.59 152.869 303.693 149.685 303.997 147.561C304.301 145.437 306.562 141.044 306.562 141.044L310.473 126.483C312.051 120.611 311.649 116.269 310.602 113.175C310.448 112.739 310.285 112.342 310.119 111.961ZM239.45 112.816C241.857 114.333 241.105 114.786 241.857 115.697C242.609 116.607 242.007 116.453 241.404 117.97C240.801 119.487 241.254 119.034 241.553 120.701C241.853 122.368 241.707 122.368 241.707 122.368L242.46 122.475L241.412 129.513C239.702 130.629 238.92 132.766 238.565 134.971C237.556 133.655 236.539 132.287 235.628 131.013C235.94 130.317 235.881 129.488 235.889 128.706C235.923 126.142 236.881 123.693 237.321 121.167C237.771 118.598 237.688 115.963 237.078 113.427C236.858 112.473 236.521 111.55 236.073 110.679C237.048 111.329 238.283 112.098 239.45 112.833V112.816ZM242.156 261.424C242.156 261.424 244.059 260.142 245.905 258.976C246.525 263.476 247.111 268.155 247.525 272.386C246.863 270.916 246.401 269.916 246.401 269.916C245.723 269.101 245.316 268.094 245.238 267.036C245.166 265.386 242.156 261.442 242.156 261.442V261.424ZM230.875 105.555C231.302 105.615 231.909 106.158 232.482 106.807C231.952 106.38 231.418 105.953 230.87 105.551L230.875 105.555ZM203.34 161.66C201.604 162.207 195.722 162.126 192.225 161.921C193.533 159.686 194.833 157.412 195.987 155.373C196.668 155.55 197.361 155.674 198.061 155.745L209.513 145.689C213.821 147.2 218.52 147.17 222.808 145.604L223.12 146.091C223.253 146.305 223.394 146.518 223.548 146.758L223.261 146.292C223.261 146.292 218.841 148.924 219.29 150.138C219.739 151.352 218.691 154.382 217.037 157.63C216.609 158.442 216.237 159.245 215.878 160.053C212.134 160.404 205.076 161.113 203.34 161.66ZM225.069 301.768L225.005 300.567C225.732 300.409 226.211 300.264 226.211 300.264C226.061 298.481 225.809 296.709 225.458 294.956C225.005 293.135 225.24 293.742 227.002 292.391C228.763 291.041 227.002 275.724 227.002 275.724C227.002 275.724 227.857 274.66 229.212 277.391C230.567 280.122 231.926 281.788 232.379 281.938C232.833 282.088 230.571 285.126 232.379 288.007C233.502 289.87 234.266 291.927 234.632 294.071C234.632 294.071 233.431 298.887 235.235 301.029C235.479 301.278 235.769 301.477 236.09 301.614C236.09 302.011 236.09 302.435 236.09 302.832C236.09 303.631 236.09 304.315 236.052 304.46C236.034 304.563 235.99 304.659 235.925 304.739C235.859 304.82 235.774 304.882 235.677 304.92C235.58 304.958 235.475 304.97 235.372 304.955C235.269 304.941 235.172 304.9 235.09 304.836C234.624 304.533 231.67 305.212 231.871 307.114C231.172 307.939 230.38 308.681 229.511 309.324L225.411 308.264L225.069 301.768Z" fill="url(#paint0_linear_7_450)"/>
<path d="M188.147 144.664C188.147 144.664 186.715 156.395 198.073 157.596L199.783 149.476L196.205 144.664L191.08 142.928L188.147 144.664Z" fill="#07A5D9"/>
<path opacity="0.1" d="M191.08 142.928L188.147 144.659C188.147 144.659 186.715 156.391 198.073 157.591" fill="black"/>
<path d="M208.756 78.332C208.756 78.332 201.091 78.8021 193.405 80.0756C192.619 80.2095 191.836 80.352 191.058 80.503C190.605 80.5885 190.161 80.6782 189.716 80.7765C185.689 81.6056 182.021 82.6826 179.884 84.0587C177.319 85.7041 176.464 81.2723 176.382 75.1139C176.348 72.9472 176.421 70.571 176.536 68.1692C176.686 65.3913 176.904 62.5793 177.135 60.0492C177.644 54.4422 178.229 50.083 178.229 50.083C178.229 50.083 180.914 50.0831 184.501 49.9591L185.655 49.9164C186.779 49.8736 187.972 49.8138 189.173 49.7412C189.742 49.7112 190.314 49.677 190.883 49.6343C193.157 49.4719 195.402 49.2411 197.295 48.942C199.313 48.6172 200.95 48.2069 201.84 47.6599C205.901 45.241 208.756 78.332 208.756 78.332Z" fill="#F8BDC5"/>
<path d="M242.909 121.65L241.412 131.578C241.412 131.578 238.151 135.638 238.578 137.894C239.006 140.151 242.768 239.872 242.768 239.872C242.768 239.872 250.142 281.985 247.581 287.4C245.02 292.815 247.431 305.452 247.431 305.452L262.778 303.046L267.908 118.94L242.909 121.65Z" fill="#474463"/>
<path opacity="0.1" d="M242.909 121.65L241.412 131.578C241.412 131.578 238.151 135.638 238.578 137.894C239.006 140.151 242.768 239.872 242.768 239.872C242.768 239.872 250.142 281.985 247.581 287.4C245.02 292.815 247.431 305.452 247.431 305.452L262.778 303.046L267.908 118.94L242.909 121.65Z" fill="black"/>
<path d="M276.762 308.007C276.274 308.815 276.313 311.191 276.45 313.213C276.569 314.952 276.762 316.431 276.762 316.431V326.658C276.762 326.658 260.363 320.944 251.334 314.926C247.611 312.443 246.551 310.136 246.756 308.289C247.055 305.661 249.919 303.947 251.334 303.947C252.685 303.947 256.952 301.593 260.449 299.511C263.197 297.883 265.48 296.426 265.48 296.426C265.48 296.426 277.664 306.503 276.762 308.007Z" fill="#575988"/>
<path opacity="0.1" d="M276.762 308.007C276.274 308.815 276.313 311.191 276.449 313.213C272.803 311.503 261.513 300.554 260.449 299.511C263.197 297.883 265.48 296.426 265.48 296.426C265.48 296.426 277.664 306.503 276.762 308.007Z" fill="black"/>
<path d="M310.465 128.569L306.553 143.01C306.553 143.01 304.296 147.369 303.988 149.476C303.681 151.583 301.582 154.741 301.582 154.741C300.632 156.82 300.119 159.072 300.077 161.357C299.927 165.421 297.084 184.221 293.908 187.379L293.156 199.563C293.156 199.563 290.163 201.666 292.254 204.692C294.344 207.717 293.609 215.521 293.609 215.521C293.609 215.521 290.749 217.777 292.557 220.034C294.366 222.29 293.156 228.91 293.156 228.91C293.156 228.91 291.501 231.013 292.254 232.218C293.006 233.423 291.51 264.407 291.51 264.407L287.893 279.596C287.893 279.596 286.235 292.233 285.328 295.994C284.422 299.755 284.426 304.413 284.426 304.413C284.426 304.413 280.515 312.687 277.655 312.238C274.795 311.79 260.957 298.246 260.957 298.246L262.911 252.518C262.911 252.518 264.565 233.116 263.514 229.355C262.462 225.594 261.71 206.794 261.71 206.794L259.602 177.165L238.561 144.074C238.561 144.074 237.035 134.445 241.395 131.59L242.186 126.389L242.9 121.663L267.878 118.953L306.092 109.03C306.092 109.03 309.037 110.846 310.58 115.38C311.636 118.436 312.042 122.744 310.465 128.569Z" fill="#474463"/>
<path d="M243.977 143.783C243.977 143.783 226.224 165.579 226.976 159.489C227.446 155.664 225.018 150.993 223.129 148.04C222.013 146.283 221.089 145.134 221.089 145.134C221.089 145.134 231.922 125.282 232.525 127.988C232.717 128.842 233.97 130.804 235.581 133.043C238.98 137.736 243.977 143.783 243.977 143.783Z" fill="#FFC1C8"/>
<path opacity="0.3" d="M276.762 324.529V326.666C276.762 326.666 260.363 320.952 251.334 314.935C247.611 312.452 246.551 310.144 246.756 308.298C251.741 310.819 261.013 315.627 263.821 317.794C266.207 319.632 272.371 322.542 276.762 324.529Z" fill="white"/>
<path d="M272.901 332.645C275.671 332.645 277.916 330.401 277.916 327.632C277.916 324.864 275.671 322.619 272.901 322.619C270.132 322.619 267.887 324.864 267.887 327.632C267.887 330.401 270.132 332.645 272.901 332.645Z" fill="#474463"/>
<path d="M221.679 325.606C224.449 325.606 226.694 323.362 226.694 320.593C226.694 317.825 224.449 315.58 221.679 315.58C218.91 315.58 216.665 317.825 216.665 320.593C216.665 323.362 218.91 325.606 221.679 325.606Z" fill="#474463"/>
<path d="M296.063 322.375C296.035 322.732 295.934 323.08 295.768 323.397L292.775 326.658L250.95 325.987L239.702 325.803C239.702 325.803 216.028 321.495 211.415 319.486C206.803 317.478 188.669 313.802 188.669 313.802C188.669 313.802 177.716 311.965 176.109 306.653C175.566 304.853 175.84 303.567 176.434 302.652C177.601 300.862 180.02 300.486 180.02 300.486C184.963 299.026 190.247 299.221 195.068 301.041L265.177 319.072L266.262 319.35C266.262 319.35 291.254 318.884 291.758 318.974C295.593 319.674 296.153 321.303 296.063 322.375Z" fill="#07A5D9"/>
<path opacity="0.3" d="M296.063 322.375C291.856 321.828 284.521 321.021 282.631 321.798C282.631 321.798 269.289 320.149 250.933 325.987L239.702 325.803C239.702 325.803 216.028 321.495 211.415 319.486C206.803 317.478 188.669 313.802 188.669 313.802C188.669 313.802 177.716 311.965 176.109 306.653C175.566 304.853 175.84 303.567 176.434 302.652C177.182 304.832 178.623 307.99 180.922 308.875C184.535 310.264 199.381 313.093 199.381 313.093L228.767 320.286C228.767 320.286 245.734 323.965 252.339 321.568C255.045 320.593 260.124 319.726 265.164 319.046L266.25 319.324C266.25 319.324 291.241 318.858 291.745 318.948C295.593 319.674 296.153 321.303 296.063 322.375Z" fill="white"/>
<path d="M255.481 316.961C255.445 317.591 255.367 318.218 255.246 318.837C255.246 318.837 238.625 319.431 229.973 318.149C227.583 317.794 226.232 317.029 225.561 316.115C225.261 315.682 225.076 315.182 225.021 314.659C224.967 314.136 225.045 313.608 225.249 313.123C225.345 312.844 225.466 312.575 225.612 312.319C226.258 311.191 227.25 310.392 227.793 310.499C229.297 310.802 231.879 307.717 231.879 307.717C231.674 305.832 234.637 305.153 235.098 305.46C235.181 305.524 235.278 305.565 235.381 305.579C235.484 305.594 235.589 305.582 235.686 305.544C235.782 305.506 235.868 305.444 235.933 305.363C235.999 305.283 236.043 305.187 236.06 305.084C236.09 304.943 236.099 304.264 236.099 303.469C236.099 302.144 236.06 300.477 236.06 300.477L252.767 302.507L253.429 305.7C254.036 308.546 254.883 312.456 255.246 313.794C255.499 314.829 255.578 315.899 255.481 316.961Z" fill="#474463"/>
<path opacity="0.1" d="M255.481 316.961C255.445 317.591 255.367 318.218 255.246 318.837C255.246 318.837 238.625 319.431 229.973 318.149C227.583 317.794 226.232 317.029 225.561 316.114C227.78 315.982 230.665 315.909 232.452 316.345C235 316.978 250.24 316.978 255.481 316.961Z" fill="black"/>
<path d="M225.595 312.311C225.613 312.465 225.589 312.622 225.525 312.763C225.461 312.905 225.36 313.026 225.232 313.114C223.129 314.738 213.036 312.973 213.036 312.973C213.036 312.973 192.413 311.691 189.331 309.589C189.053 309.406 188.82 309.162 188.651 308.875C187.369 306.559 192.012 302.67 192.413 302.67C192.815 302.67 198.36 301.913 198.732 301.84C201.297 301.323 203.862 299.734 204.289 300.187C204.717 300.64 206.854 299.584 207.897 299.434C208.278 299.379 208.453 298.84 208.517 298.152C208.577 297.221 208.546 296.286 208.423 295.362L224.894 299.793L225.039 302.417L225.514 311.153L225.574 312.225C225.584 312.253 225.591 312.282 225.595 312.311Z" fill="#474463"/>
<path opacity="0.1" d="M213.053 312.973C213.053 312.973 192.43 311.691 189.348 309.589C189.07 309.406 188.838 309.162 188.669 308.875C192.845 309.217 199.809 309.794 201.066 310.114C202.874 310.542 213.036 311.166 213.036 311.166H225.531L225.591 312.238C226.134 315.264 213.053 312.973 213.053 312.973Z" fill="black"/>
<path d="M196.569 325.606C199.338 325.606 201.583 323.362 201.583 320.593C201.583 317.825 199.338 315.58 196.569 315.58C193.799 315.58 191.554 317.825 191.554 320.593C191.554 323.362 193.799 325.606 196.569 325.606Z" fill="#474463"/>
<path d="M251.031 336.013C253.8 336.013 256.045 333.768 256.045 331C256.045 328.231 253.8 325.987 251.031 325.987C248.261 325.987 246.016 328.231 246.016 331C246.016 333.768 248.261 336.013 251.031 336.013Z" fill="#474463"/>
<path d="M200.031 150.078C200.031 150.078 199.082 151.788 197.654 154.326C194.234 160.361 188.083 171.058 185.437 174.443C181.675 179.255 181.978 174.746 177.913 164.669C174.895 157.173 184.184 148.595 189.152 144.698C190.862 143.343 192.059 142.561 192.059 142.561L200.031 150.078Z" fill="#F8BDC5"/>
<path d="M218.234 161.66C218.234 161.66 205.747 162.711 203.34 163.463C200.933 164.216 190.554 163.763 189.66 163.463C188.767 163.164 171 167.224 179.127 171.284C187.254 175.344 192.379 171.284 192.379 171.284C192.379 171.284 202.913 170.682 205.631 172.34C208.35 173.998 218.268 173.092 218.268 173.092L218.234 161.66Z" fill="#FFC1C8"/>
<path opacity="0.1" d="M192.294 69.6094C193.833 73.5455 192.871 76.973 191.058 80.4902C186.518 81.3449 182.248 82.5202 179.871 84.0459C173.099 88.4093 178.216 50.0531 178.216 50.0531C178.216 50.0531 181.491 50.0531 185.642 49.8865C184.385 55.6217 189.147 61.575 192.294 69.6094Z" fill="black"/>
<path d="M192.678 68.7548C192.67 75.0545 190.343 81.1307 186.14 85.8245C181.937 90.5183 176.153 93.5011 169.891 94.204C163.628 94.9068 157.327 93.2805 152.187 89.6353C147.048 85.99 143.431 80.581 142.025 74.4399C140.62 68.2988 141.526 61.8555 144.569 56.3391C147.612 50.8227 152.58 46.6192 158.525 44.5305C164.47 42.4418 170.976 42.6141 176.802 45.0144C182.628 47.4148 187.367 51.8752 190.113 57.5449C191.806 61.0392 192.683 64.8722 192.678 68.7548Z" fill="#F8BDC5"/>
<path opacity="0.1" d="M310.589 115.368C309.777 116.549 308.56 117.393 307.169 117.74C301.3 119.393 259.923 129.321 257.217 128.719C254.827 128.189 244.572 126.714 242.207 126.377L242.921 121.65L267.9 118.94L306.113 109.017C306.113 109.017 309.046 110.833 310.589 115.368Z" fill="black"/>
<path opacity="0.1" d="M208.756 78.332C203.866 78.6251 198.993 79.1671 194.158 79.956C194.226 79.736 194.217 79.4991 194.132 79.285L204.135 78.0499C204.135 78.0499 202.673 54.5448 197.295 48.9121C199.313 48.5873 200.95 48.177 201.84 47.63C205.901 45.241 208.756 78.332 208.756 78.332Z" fill="black"/>
<path d="M195.671 43.0315C195.671 43.0315 204.55 42.2324 205.751 40.728C206.952 39.2237 215.532 38.775 215.532 38.775C215.532 38.775 219.743 38.0228 220.662 36.9672C221.581 35.9116 244.43 34.5611 246.688 35.7663C248.945 36.9715 251.052 37.7194 252.407 37.8732C253.763 38.0271 264.292 45.5402 265.343 45.5402C266.395 45.5402 295.268 72.7677 295.268 72.7677C295.268 72.7677 298.26 79.6868 299.483 79.9859C300.705 80.2851 311.521 107.662 311.521 107.662C311.521 107.662 313.026 114.278 307.16 115.936C301.295 117.594 259.914 127.518 257.208 126.915C254.502 126.312 241.712 124.509 241.712 124.509C241.712 124.509 241.861 124.509 241.562 122.855C241.263 121.201 240.81 121.65 241.408 120.146C242.007 118.641 242.614 118.791 241.861 117.889C241.109 116.987 241.861 116.534 239.454 115.03C237.048 113.526 234.325 111.872 234.188 111.423C234.051 110.974 231.931 107.961 230.879 107.812C229.827 107.662 200.335 99.3884 200.335 99.3884L193.414 97.1319C193.414 97.1319 190.105 94.8754 190.849 93.5249C191.593 92.1744 194.153 79.956 194.153 79.956L204.734 78.6526C204.734 78.6526 203.156 53.1815 197.231 48.9078C191.306 44.6342 195.671 43.0315 195.671 43.0315Z" fill="#07A5D9"/>
<path opacity="0.1" d="M200.031 150.078C200.031 150.078 199.082 151.788 197.654 154.326C197.432 146.48 191.943 144.959 189.152 144.698C190.862 143.343 192.059 142.561 192.059 142.561L200.031 150.078Z" fill="black"/>
<path d="M192.678 93.0719L193.405 97.1319C193.405 97.1319 196.265 100.594 196.265 101.645C196.265 102.696 199.574 105.705 200.48 107.359C201.386 109.013 204.541 109.316 203.336 112.175C202.13 115.034 195.213 136.843 195.213 136.843L188.143 144.664C188.143 144.664 199.877 143.608 198.069 157.596L213.266 144.347L225.168 122.701C225.168 122.701 213.583 100.743 213.134 98.9396C212.685 97.1362 192.678 93.0719 192.678 93.0719Z" fill="#07A5D9"/>
<path opacity="0.1" d="M227.865 100.594C227.865 100.594 237.492 93.8241 237.492 93.0719C237.492 92.3197 227.865 100.594 227.865 100.594Z" fill="black"/>
<path opacity="0.1" d="M243.977 109.017C243.977 109.017 249.107 107.812 249.535 105.107C249.962 102.401 243.977 109.017 243.977 109.017Z" fill="black"/>
<path opacity="0.1" d="M248.175 115.936C248.175 115.936 255.4 112.359 255.096 111.739C254.793 111.12 248.175 115.936 248.175 115.936Z" fill="black"/>
<path opacity="0.1" d="M286.842 93.0249C286.842 93.0249 283.849 94.978 284.739 96.8071C285.628 98.6362 286.842 93.0249 286.842 93.0249Z" fill="black"/>
<path opacity="0.1" d="M295.704 93.8241C295.704 93.8241 287.179 101.944 289.107 102.098C291.035 102.252 295.704 93.8241 295.704 93.8241Z" fill="black"/>
<path opacity="0.1" d="M276.313 219.718C276.313 219.718 287.295 221.825 287.594 222.577C287.893 223.329 276.313 219.718 276.313 219.718Z" fill="black"/>
<path opacity="0.1" d="M280.224 226.936C280.224 226.936 286.089 230.547 286.239 231.598C286.389 232.65 280.224 226.936 280.224 226.936Z" fill="black"/>
<path opacity="0.1" d="M278.869 235.06C278.869 235.06 279.771 239.12 281.276 239.723C282.781 240.325 278.869 235.06 278.869 235.06Z" fill="black"/>
<path opacity="0.1" d="M190.139 57.4125C190.139 57.4552 190.139 57.5022 190.118 57.545C189.913 58.8826 189.365 60.3314 188.109 60.7758C187.349 60.9894 186.538 60.9148 185.83 60.5664C183.693 59.6305 181.79 57.3826 179.507 57.9253C178.422 58.1817 177.661 59.0065 177.122 60.0194C176.749 60.7485 176.462 61.5187 176.267 62.3144C175.84 63.9896 175.498 65.8102 176.152 67.4043C176.259 67.6651 176.388 67.9166 176.536 68.1565C177.143 69.1266 177.998 69.9514 178.597 70.9301C179.341 72.1523 179.533 73.9857 178.375 74.8234C178.084 75.0144 177.754 75.1384 177.41 75.1864C177.065 75.2345 176.714 75.2054 176.382 75.1012C175.534 74.8346 174.718 74.4733 173.95 74.0242C172.437 73.2336 170.53 72.7421 169.094 73.6567C168.598 73.9644 168.2 74.4088 167.726 74.7336C166.739 75.3443 165.569 75.5879 164.421 75.4217C161.702 75.1439 160.685 73.4216 158.607 72.0882C157.086 71.1053 153.905 70.6865 152.999 72.6951C152.417 73.9772 153.281 75.5926 152.712 76.9004C152.144 78.2081 150.335 78.6099 149.498 79.8236C148.395 81.4219 149.421 83.734 148.613 85.5075C148.489 85.7823 148.323 86.0361 148.121 86.2597C143.591 81.3798 141.13 74.9338 141.256 68.2773C141.383 61.6209 144.086 55.2728 148.798 50.5679C153.509 45.863 159.863 43.168 166.521 43.0497C173.18 42.9314 179.624 45.399 184.501 49.9335L185.655 49.8908C186.779 49.8481 187.972 49.7882 189.173 49.7156C189.457 50.3169 189.679 50.9455 189.836 51.5917C190.301 53.4958 190.404 55.4703 190.139 57.4125Z" fill="black"/>
<path d="M152.387 72.0968C151.802 73.3789 152.665 74.9943 152.101 76.2978C151.537 77.6013 149.716 78.0073 148.886 79.221C147.779 80.8236 148.805 83.1357 148.001 84.905C147.078 86.9264 144.291 87.2427 142.153 86.6529C140.327 86.1316 138.651 85.1834 137.264 83.8867C135.877 82.5899 134.819 80.9819 134.176 79.1953C132.727 75.0713 133.663 70.5326 133.287 66.1778C133.127 64.3116 132.725 62.4741 132.09 60.7117C131.47 59.0023 130.624 57.3184 130.423 55.5021C130.279 53.961 130.601 52.4122 131.346 51.0555C132.091 49.6988 133.226 48.5964 134.604 47.8907C136.365 47.036 138.532 46.7924 139.815 45.3265C140.798 44.1897 141.008 42.6042 141.465 41.1725C142.7 37.3262 146.39 34.1894 150.442 34.2278C153.683 34.2535 156.855 36.1638 160.022 35.4116C161.814 34.9843 163.442 33.7022 165.289 33.8859C166.174 34.025 167.021 34.3404 167.781 34.8133C172.698 37.4683 177.377 40.5425 181.765 44.0017C182.672 44.7832 183.666 45.4585 184.727 46.0146C185.41 46.2808 186.077 46.5876 186.723 46.9334C188.104 47.7882 188.827 49.4164 189.22 50.9977C189.692 52.9006 189.799 54.8756 189.536 56.8184C189.348 58.1903 188.81 59.7288 187.506 60.1861C186.744 60.3985 185.931 60.3208 185.223 59.9681C183.086 59.0407 181.187 56.7928 178.905 57.3313C177.041 57.7586 176.143 59.8698 175.656 61.7203C175.228 63.3956 174.878 65.2162 175.54 66.8145C176.088 68.1394 177.25 69.1095 177.981 70.336C178.712 71.5626 178.922 73.396 177.759 74.2293C176.477 75.1567 174.737 74.1695 173.33 73.4344C171.825 72.6438 169.91 72.1523 168.478 73.0626C167.987 73.3703 167.589 73.8148 167.11 74.1439C166.123 74.7486 164.956 74.9905 163.81 74.8277C161.087 74.5499 160.069 72.8276 157.996 71.4942C156.47 70.5027 153.298 70.0839 152.387 72.0968Z" fill="#474463"/>
<path opacity="0.1" d="M235.586 133.022C235.47 133.663 234.59 133.736 234.41 134.36C232.7 140.39 228.938 145.813 223.133 148.036C222.017 146.279 221.094 145.129 221.094 145.129C221.094 145.129 231.926 125.278 232.529 127.983C232.721 128.825 233.974 130.783 235.586 133.022Z" fill="black"/>
<path d="M235.906 128.868C235.907 132.795 234.743 136.635 232.561 139.9C230.379 143.166 227.278 145.712 223.649 147.215C220.02 148.719 216.026 149.113 212.173 148.347C208.32 147.581 204.781 145.691 202.003 142.914C199.225 140.137 197.332 136.599 196.566 132.748C195.799 128.896 196.192 124.903 197.695 121.275C199.198 117.647 201.744 114.545 205.01 112.364C208.277 110.182 212.117 109.017 216.045 109.017C218.656 109.007 221.242 109.514 223.656 110.508C226.07 111.503 228.263 112.964 230.109 114.81C231.955 116.655 233.418 118.847 234.413 121.26C235.408 123.673 235.915 126.258 235.906 128.868Z" fill="#FFC1C8"/>
<path opacity="0.1" d="M224.928 299.806L225.074 302.43C223.334 302.815 220.025 303.319 218.097 302.14C215.605 300.614 211.924 300.242 208.551 298.165C208.611 297.234 208.58 296.299 208.457 295.375L224.928 299.806Z" fill="black"/>
<path opacity="0.1" d="M253.429 305.708C253.314 306.294 253.207 306.653 253.207 306.653C253.207 306.653 239.933 305.294 236.107 303.46C236.107 302.135 236.069 300.469 236.069 300.469L252.775 302.499L253.429 305.708Z" fill="black"/>
<path d="M250.432 246.039C249.53 248.445 249.077 248.898 249.984 250.099C250.89 251.3 250.432 257.621 248.996 258.219C247.56 258.817 242.156 262.429 242.156 262.429C242.156 262.429 245.149 266.339 245.238 267.984C245.317 269.036 245.724 270.036 246.401 270.844C246.401 270.844 251.035 280.771 251.959 283.93C252.882 287.088 253.728 292.049 253.728 292.049C253.728 292.049 252.108 296.562 253.228 299.122C254.348 301.682 253.228 305.439 253.228 305.439C253.228 305.439 237.065 303.785 235.274 301.661C233.482 299.537 234.675 294.759 234.675 294.759C234.306 292.63 233.54 290.589 232.418 288.742C230.61 285.883 232.845 282.878 232.418 282.724C231.99 282.57 230.61 280.921 229.25 278.216C227.891 275.51 227.044 276.557 227.044 276.557C227.044 276.557 228.806 291.75 227.044 293.105C225.283 294.46 225.044 293.857 225.497 295.669C225.848 297.409 226.099 299.166 226.249 300.934C226.249 300.934 220.833 302.588 218.127 300.934C215.421 299.281 211.347 298.977 207.769 296.421C204.191 293.866 209.389 289.502 210.291 288.9C211.193 288.297 209.992 279.575 209.992 279.575L208.786 271.002C208.786 271.002 212.847 271.903 211.514 268.596C210.18 265.288 208.637 253.856 207.884 252.052C207.132 250.249 210.449 247.838 209.992 246.637C209.534 245.437 211.945 238.518 211.945 238.518C211.945 238.518 212.099 232.804 213.6 231.731C214.173 231.329 214.545 230.081 214.793 228.701C215.056 227.072 215.211 225.427 215.258 223.778C215.258 223.778 249.71 221.372 255.276 224.679C257.781 226.167 257.606 228.906 256.558 231.68C255.276 235.064 252.643 238.518 251.98 239.77C250.736 242.077 251.334 243.633 250.432 246.039Z" fill="#575988"/>
<path opacity="0.1" d="M256.516 231.68C252.241 232.881 246.547 234.646 245.619 235.658C244.114 237.317 238.997 226.333 238.997 226.333C238.997 226.333 239.301 234.59 232.529 231.137C226.668 228.145 217.208 228.539 214.763 228.701C215.026 227.072 215.181 225.427 215.229 223.778C215.229 223.778 249.68 221.372 255.246 224.679C257.751 226.167 257.576 228.906 256.516 231.68Z" fill="black"/>
<path d="M238.997 140.753C238.997 140.753 241.989 137.142 242.609 138.497C243.229 139.851 246.76 142.557 246.76 142.557C246.76 142.557 247.773 145.715 249.556 146.168C251.339 146.621 264.728 164.669 264.728 164.669L259.91 174.442L255.998 198.208C255.998 198.208 256.169 201.969 255.105 203.337C254.04 204.704 249.975 204.388 251.86 206.042C253.745 207.696 256.451 209.2 257.956 216.726C259.461 224.252 261.265 228.607 261.265 228.607C261.265 228.607 247.124 232.218 245.619 233.872C244.114 235.526 238.997 224.547 238.997 224.547C238.997 224.547 239.301 232.799 232.529 229.351C225.758 225.902 214.173 226.953 214.173 226.953V218.064C214.173 218.064 216.43 214.602 215.229 212.196C214.027 209.79 216.049 205.277 216.049 205.277C216.049 205.277 215.378 200.614 214.173 197.909C212.967 195.204 213.42 182.417 213.42 182.417C213.42 182.417 212.505 174.143 213.339 169.93C214.046 166.277 215.296 162.751 217.045 159.468C218.7 156.245 219.747 153.237 219.298 152.031C218.849 150.826 223.27 148.219 223.27 148.219L225.719 152.181L226.343 154.549C226.343 154.549 239.301 145.266 238.997 140.753Z" fill="#DCE6F2"/>
<path d="M260.649 161.66C260.649 161.66 269.075 169.929 269.977 171.284C270.879 172.639 273.902 179.682 269.99 181.819C266.079 183.956 250.753 187.251 249.231 186.114C247.709 184.977 238.544 187.396 238.544 187.396C238.544 187.396 223.214 191.157 226.523 184.99C229.832 178.823 237.659 179.861 237.659 179.861C237.659 179.861 250.304 179.84 251.655 178.579C253.006 177.319 263.197 174.613 260.889 169.041C258.58 163.468 260.649 161.66 260.649 161.66Z" fill="#FFC1C8"/>
<path opacity="0.1" d="M235.906 198.661C235.906 198.661 216.28 215.658 218.234 215.658C220.187 215.658 235.906 198.661 235.906 198.661Z" fill="black"/>
<path opacity="0.1" d="M248.996 205.58C248.996 205.58 242.759 207.081 243.964 207.987C245.17 208.893 248.996 205.58 248.996 205.58Z" fill="black"/>
<path opacity="0.1" d="M227.002 164.365C227.002 164.365 234.786 165.062 233.414 167.498C232.042 169.934 227.002 164.365 227.002 164.365Z" fill="black"/>
<path opacity="0.1" d="M222.15 237.415C222.15 237.415 221.094 240.475 222.15 242.116C223.206 243.757 222.15 247.672 222.15 247.672V261.348C222.15 261.348 222.004 271.275 225.608 274.733L222.15 237.415Z" fill="black"/>
<path opacity="0.1" d="M211.843 280.032C211.843 280.032 213.946 283.113 214.25 284.242C214.553 285.37 211.843 280.032 211.843 280.032Z" fill="black"/>
<path opacity="0.1" d="M212.369 273.865C212.369 273.865 217.259 272.963 218.012 273.489C218.764 274.015 212.369 273.865 212.369 273.865Z" fill="black"/>
<path opacity="0.1" d="M210.941 292.289C210.941 292.289 209.509 292.438 212.369 293.998C215.229 295.558 220.795 297.533 220.867 296.857C220.94 296.182 210.941 292.289 210.941 292.289Z" fill="black"/>
<path opacity="0.1" d="M231.875 277.322C232.38 277.322 238.676 276.946 238.313 277.925C237.95 278.904 231.875 277.322 231.875 277.322Z" fill="black"/>
<path opacity="0.1" d="M240.429 268.523C240.429 268.523 241.857 266.044 242.383 267.096C242.909 268.147 240.429 268.523 240.429 268.523Z" fill="black"/>
<path opacity="0.1" d="M235.906 128.868C235.909 130.714 235.652 132.551 235.145 134.326C234.316 135.078 232.884 135.086 231.862 134.526C230.665 133.868 229.883 132.672 229.105 131.535C228.327 130.398 227.442 129.261 226.168 128.774C224.556 128.167 222.718 128.774 221.316 129.783C219.914 130.791 218.794 132.125 217.469 133.202C216.143 134.279 214.455 135.15 212.766 134.885C211.676 134.719 210.71 134.103 209.774 133.509C208.491 132.702 207.115 131.445 205.708 130.902C204.302 130.36 203.143 131.33 201.805 131.33C200.741 131.714 199.582 132.591 199.796 133.697C199.911 134.108 200.096 134.496 200.343 134.843C200.773 135.689 200.942 136.643 200.831 137.585C200.719 138.528 200.331 139.416 199.715 140.138C197.943 137.577 196.798 134.635 196.374 131.55C195.949 128.465 196.256 125.324 197.27 122.38C198.284 119.435 199.976 116.771 202.21 114.601C204.445 112.431 207.158 110.817 210.131 109.889C213.105 108.961 216.255 108.746 219.327 109.259C222.399 109.773 225.307 111.002 227.816 112.847C230.326 114.692 232.366 117.101 233.772 119.88C235.178 122.658 235.911 125.729 235.911 128.843L235.906 128.868Z" fill="black"/>
<path d="M201.801 130.753C200.737 131.137 199.578 132.013 199.788 133.125C199.906 133.533 200.093 133.919 200.339 134.266C201.587 136.492 200.531 139.689 198.202 140.723C197.836 140.913 197.419 140.979 197.013 140.911C196.691 140.811 196.398 140.635 196.158 140.398C194.905 139.279 194.041 137.789 193.692 136.146C193.324 134.437 193.55 132.625 193.362 130.868C193.174 129.112 192.572 127.381 192.362 125.612C192.214 124.737 192.307 123.839 192.631 123.013C192.913 122.468 193.277 121.97 193.709 121.534C194.91 120.197 196.162 118.829 196.765 117.133C197.719 114.432 197.026 110.991 199.112 109.013C200.078 108.107 201.429 107.769 202.626 107.196C203.753 106.598 204.832 105.914 205.854 105.149C209.722 102.491 214.425 100.448 219.025 101.388C220.862 101.833 222.622 102.554 224.244 103.525C227.257 105.186 230.118 107.108 232.794 109.269C233.951 110.125 234.962 111.162 235.787 112.342C236.401 113.352 236.843 114.456 237.095 115.611C237.709 118.131 237.793 120.75 237.343 123.304C236.915 125.808 235.945 128.24 235.906 130.783C235.906 131.637 235.975 132.561 235.534 133.296C234.829 134.467 233.081 134.578 231.884 133.928C230.687 133.279 229.904 132.073 229.131 130.937C228.357 129.8 227.468 128.663 226.194 128.18C224.582 127.569 222.744 128.18 221.342 129.184C219.939 130.189 218.824 131.526 217.494 132.603C216.165 133.68 214.502 134.552 212.792 134.287C211.702 134.12 210.736 133.509 209.799 132.915C208.517 132.103 207.14 130.847 205.738 130.308C204.336 129.77 203.135 130.753 201.801 130.753Z" fill="#794F6A"/>
<path d="M247.423 161.66C247.423 161.66 225.309 182.114 229.819 192.341C234.329 202.567 254.186 184.52 254.186 184.52L261.265 168.143L247.423 161.66Z" fill="#F8BDC5"/>
<g opacity="0.1">
<path d="M198.193 139.51C197.829 139.7 197.414 139.766 197.009 139.698C196.685 139.599 196.392 139.421 196.154 139.181C194.901 138.062 194.036 136.574 193.683 134.932C193.32 133.202 193.546 131.407 193.358 129.65C193.17 127.894 192.563 126.167 192.358 124.394C192.358 124.308 192.358 124.218 192.336 124.129C192.29 124.618 192.297 125.111 192.358 125.599C192.563 127.368 193.17 129.078 193.358 130.855C193.546 132.633 193.32 134.407 193.683 136.133C194.034 137.777 194.9 139.266 196.154 140.386C196.393 140.623 196.686 140.799 197.009 140.899C197.414 140.967 197.829 140.901 198.193 140.71C200.031 139.894 201.07 137.745 200.826 135.779C200.737 136.572 200.449 137.33 199.989 137.982C199.528 138.634 198.911 139.16 198.193 139.51Z" fill="black"/>
<path d="M237.313 122.094C236.885 124.599 235.915 127.03 235.881 129.573C235.881 130.428 235.949 131.351 235.504 132.086C234.803 133.257 233.055 133.368 231.858 132.719C230.661 132.069 229.879 130.868 229.101 129.727C228.323 128.586 227.442 127.454 226.164 126.971C224.556 126.364 222.718 126.971 221.316 127.979C219.914 128.988 218.794 130.317 217.469 131.398C216.143 132.479 214.455 133.347 212.766 133.086C211.676 132.915 210.71 132.304 209.774 131.71C208.491 130.898 207.115 129.646 205.713 129.103C204.31 128.56 203.148 129.531 201.81 129.531C200.745 129.919 199.587 130.791 199.792 131.907C199.818 132.027 199.857 132.145 199.907 132.257C200.326 131.528 201.006 130.984 201.81 130.736C203.143 130.736 204.323 129.778 205.713 130.308C207.102 130.838 208.504 132.103 209.774 132.915C210.701 133.509 211.668 134.12 212.766 134.287C214.476 134.552 216.152 133.693 217.469 132.603C218.785 131.514 219.918 130.167 221.316 129.184C222.714 128.201 224.556 127.569 226.164 128.18C227.446 128.663 228.327 129.813 229.101 130.937C229.874 132.061 230.661 133.253 231.858 133.928C233.055 134.603 234.803 134.467 235.504 133.296C235.932 132.561 235.868 131.642 235.881 130.783C235.915 128.24 236.872 125.808 237.313 123.304C237.538 122.018 237.63 120.711 237.586 119.406C237.559 120.308 237.468 121.206 237.313 122.094Z" fill="black"/>
</g>
<path opacity="0.1" d="M220.944 57.5749C220.944 57.5749 212.822 72.3148 223.937 79.8364C235.051 87.3581 236.124 86.6059 236.124 86.6059C236.124 86.6059 235.97 88.4094 236.124 88.8624C236.278 89.3154 239.117 90.3625 239.117 90.3625C239.117 90.3625 242.575 95.9182 247.538 98.3371C252.501 100.756 253.408 106.457 253.408 106.457C253.408 106.457 253.408 108.414 255.973 110.218C258.538 112.021 260.513 117.287 260.513 117.287V122.103C260.513 122.855 261.415 125.095 259.461 125.334C257.507 125.573 259.158 130.073 259.158 130.073C259.158 130.073 257.054 132.638 257.503 133.834C257.952 135.031 256.601 137.441 256.601 137.441C256.601 137.441 254.947 139.847 255.096 140.3C255.246 140.753 253.292 142.407 253.741 143.458C254.19 144.51 251.488 145.865 251.937 147.07C252.386 148.275 250.013 148.873 250.013 148.873L243.511 163.917C243.511 163.917 257.191 166.908 260.722 174.443L277.967 142.856C277.967 142.856 287.594 119.244 287.898 117.74C288.201 116.235 285.79 110.82 285.79 110.82L274.056 89.4522L256.451 64.635C256.451 64.635 242.46 34.8646 220.944 57.5749Z" fill="black"/>
<path opacity="0.1" d="M238.313 63.793C238.313 63.793 217.178 71.2078 228.31 78.7295C239.442 86.2512 240.498 85.4947 240.498 85.4947C240.498 85.4947 240.348 87.3025 240.498 87.7512C240.647 88.2 243.49 89.2555 243.49 89.2555C243.49 89.2555 246.953 94.8113 251.916 97.2302C256.879 99.6491 257.785 105.35 257.785 105.35C257.785 105.35 257.785 107.308 260.35 109.111C262.915 110.914 264.865 116.18 264.865 116.18V120.992C264.865 121.744 265.767 123.983 263.809 124.227C261.851 124.471 263.509 128.966 263.509 128.966C263.509 128.966 261.402 131.531 261.855 132.723C262.308 133.915 260.953 136.334 260.953 136.334C260.953 136.334 259.299 138.74 259.448 139.193C259.598 139.646 257.64 141.3 258.093 142.352C258.546 143.403 255.836 144.758 256.289 145.963C256.742 147.168 254.361 147.766 254.361 147.766L247.863 162.805C247.863 162.805 259.132 163.387 262.689 170.925L282.315 141.766C282.315 141.766 291.946 118.154 292.245 116.65C292.545 115.145 290.146 109.714 290.146 109.714L278.412 88.3452L251.642 72.9088C251.642 72.9088 259.829 41.0785 238.313 63.793Z" fill="black"/>
<path d="M222.15 57.5749C222.15 57.5749 214.027 72.3148 225.142 79.8364C236.257 87.3581 237.33 86.6059 237.33 86.6059C237.33 86.6059 237.18 88.4094 237.33 88.8624C237.479 89.3154 240.322 90.3624 240.322 90.3624C240.322 90.3624 243.785 95.9182 248.748 98.3371C253.711 100.756 254.618 106.457 254.618 106.457C254.618 106.457 254.618 108.414 257.182 110.218C259.747 112.021 261.718 117.287 261.718 117.287V122.103C261.718 122.855 262.62 125.095 260.662 125.334C258.704 125.573 260.363 130.073 260.363 130.073C260.363 130.073 258.255 132.638 258.709 133.834C259.162 135.031 257.807 137.441 257.807 137.441C257.807 137.441 256.152 139.847 256.302 140.3C256.451 140.753 254.494 142.407 254.947 143.458C255.4 144.51 252.69 145.865 253.143 147.07C253.596 148.275 251.215 148.873 251.215 148.873L244.717 163.917C244.717 163.917 258.371 166.908 261.923 174.443L279.168 142.856C279.168 142.856 288.8 119.244 289.099 117.74C289.398 116.235 286.991 110.82 286.991 110.82L275.257 89.4522L257.657 64.6435C257.657 64.6435 243.661 34.8646 222.15 57.5749Z" fill="#07A5D9"/>
<g opacity="0.1">
<path d="M133.287 64.9768C133.129 63.1089 132.727 61.2698 132.09 59.5065C131.47 57.7971 130.624 56.1132 130.423 54.2969C130.423 54.2414 130.423 54.1901 130.423 54.1345C130.378 54.5893 130.378 55.0473 130.423 55.5021C130.624 57.3184 131.47 58.9894 132.09 60.7117C132.727 62.4735 133.129 64.3112 133.287 66.1777C133.347 66.8786 133.373 67.588 133.381 68.3145C133.394 67.182 133.381 66.0751 133.287 64.9768Z" fill="black"/>
<path d="M148.001 83.704C147.082 85.7212 144.291 86.0417 142.153 85.4477C140.329 84.9249 138.654 83.9767 137.267 82.681C135.881 81.3853 134.821 79.7791 134.176 77.9944C133.582 76.1578 133.293 74.2362 133.321 72.3062C133.296 74.6609 133.385 76.9858 134.176 79.1953C134.821 80.9806 135.88 82.5875 137.267 83.8839C138.654 85.1803 140.328 86.1293 142.153 86.6529C144.291 87.2426 147.082 86.9264 148.001 84.9049C148.39 84.0502 148.352 83.0587 148.335 82.0843C148.327 82.6404 148.214 83.19 148.001 83.704Z" fill="black"/>
<path d="M189.536 55.6089C189.353 56.9765 188.81 58.515 187.506 58.9723C186.746 59.1845 185.934 59.1084 185.227 58.7586C183.09 57.827 181.187 55.579 178.905 56.1218C177.041 56.5491 176.147 58.656 175.656 60.5108C175.299 61.6828 175.145 62.9068 175.198 64.1306C175.28 63.3125 175.433 62.5031 175.656 61.7117C176.147 59.8612 177.041 57.7671 178.905 57.3227C181.187 56.7842 183.073 59.0321 185.227 59.9595C185.933 60.3123 186.746 60.39 187.506 60.1775C188.81 59.7202 189.353 58.1817 189.536 56.8098C189.654 55.9361 189.697 55.054 189.665 54.173C189.643 54.6516 189.6 55.1345 189.536 55.6089Z" fill="black"/>
<path d="M177.759 73.0199C176.477 73.9472 174.737 72.96 173.33 72.2207C171.825 71.4301 169.91 70.9386 168.478 71.8489C167.987 72.1566 167.589 72.601 167.11 72.9301C166.125 73.5393 164.956 73.7815 163.81 73.6139C161.087 73.3361 160.069 71.6138 157.996 70.2804C156.474 69.3018 153.294 68.8829 152.387 70.8916C152.17 71.4829 152.11 72.1205 152.212 72.7421C152.24 72.5199 152.299 72.3026 152.387 72.0967C153.298 70.0838 156.474 70.5027 157.996 71.4856C160.069 72.819 161.087 74.5413 163.81 74.8191C164.957 74.9832 166.125 74.7396 167.11 74.131C167.589 73.8062 167.987 73.3618 168.478 73.054C169.923 72.1566 171.825 72.6267 173.33 73.4259C174.737 74.1609 176.468 75.1353 177.759 74.2208C178.511 73.6823 178.691 72.725 178.524 71.7805C178.436 72.276 178.163 72.7193 177.759 73.0199Z" fill="black"/>
<path d="M152.101 75.0969C151.515 76.4388 149.716 76.8063 148.886 78.0158C148.266 78.9132 148.318 80.0329 148.339 81.1569C148.331 80.4724 148.521 79.8001 148.886 79.2209C149.716 78.0115 151.515 77.6397 152.101 76.2978C152.306 75.7139 152.362 75.0881 152.263 74.4772C152.237 74.69 152.182 74.8984 152.101 75.0969Z" fill="black"/>
</g>
</g>
<defs>
<linearGradient id="paint0_linear_7_450" x1="221.034" y1="335.624" x2="221.034" y2="30.9969" gradientUnits="userSpaceOnUse">
<stop stop-color="#808080" stop-opacity="0.25"/>
<stop offset="0.54" stop-color="#808080" stop-opacity="0.12"/>
<stop offset="1" stop-color="#808080" stop-opacity="0.1"/>
</linearGradient>
<clipPath id="clip0_7_450">
<rect width="469" height="338" fill="white" transform="translate(0.5)"/>
</clipPath>
</defs>
</svg>
