<svg width="460" height="416" viewBox="0 0 460 416" fill="none" xmlns="http://www.w3.org/2000/svg">
<g clip-path="url(#clip0_9_1497)">
<path d="M168.398 319.536H20.6624C15.349 319.53 10.255 317.417 6.49782 313.66C2.74068 309.903 0.627285 304.809 0.621277 299.495V91.6636C0.621277 41.2025 41.6741 0.149414 92.1352 0.149414H168.399C173.712 0.155416 178.806 2.26877 182.563 6.02584C186.32 9.78291 188.433 14.8769 188.439 20.1902V299.495C188.433 304.809 186.32 309.903 182.563 313.66C178.806 317.417 173.712 319.53 168.398 319.536Z" fill="#F2F2F2"/>
<path d="M25.8283 180.766C23.5904 180.769 21.445 181.659 19.8626 183.241C18.2802 184.824 17.3901 186.969 17.3875 189.207V236.645C17.39 238.883 18.2801 241.028 19.8625 242.611C21.4449 244.193 23.5904 245.083 25.8283 245.086H169.4C171.638 245.083 173.783 244.193 175.366 242.611C176.948 241.028 177.838 238.883 177.841 236.645V189.207C177.838 186.969 176.948 184.824 175.366 183.241C173.783 181.659 171.638 180.769 169.4 180.766H25.8283Z" fill="white"/>
<path d="M169.745 149.99H26.1741C23.7529 149.987 21.4316 149.024 19.7195 147.312C18.0074 145.6 17.0444 143.279 17.0417 140.857C17.0587 125.859 23.0242 111.48 33.6295 100.875C44.2349 90.2694 58.6139 84.3038 73.6121 84.2869H169.746C172.167 84.2896 174.488 85.2526 176.2 86.9647C177.912 88.6767 178.875 90.998 178.878 93.4193V140.857C178.875 143.278 177.912 145.6 176.2 147.312C174.488 149.024 172.167 149.987 169.745 149.99Z" fill="white"/>
<path d="M231.559 237.808H66.2851C65.3137 237.807 64.3824 237.421 63.6954 236.734C63.0085 236.047 62.6221 235.115 62.621 234.144V190.597C62.6221 189.625 63.0086 188.694 63.6955 188.007C64.3824 187.32 65.3137 186.934 66.2851 186.933H231.559C232.53 186.934 233.462 187.32 234.149 188.007C234.836 188.694 235.222 189.625 235.223 190.597V234.144C235.222 235.115 234.836 236.047 234.149 236.734C233.462 237.421 232.53 237.807 231.559 237.808Z" fill="white"/>
<path d="M231.559 238.5H66.2852C65.1304 238.498 64.0233 238.039 63.2068 237.222C62.3902 236.406 61.9309 235.299 61.9296 234.144V190.597C61.9309 189.442 62.3902 188.335 63.2068 187.518C64.0233 186.702 65.1304 186.242 66.2852 186.241H231.559C232.714 186.242 233.821 186.702 234.638 187.518C235.454 188.335 235.913 189.442 235.915 190.597V234.144C235.913 235.299 235.454 236.406 234.638 237.222C233.821 238.039 232.714 238.498 231.559 238.5ZM66.2852 187.624C65.4972 187.625 64.7417 187.939 64.1844 188.496C63.6272 189.053 63.3137 189.809 63.3128 190.597V234.144C63.3137 234.932 63.6272 235.688 64.1844 236.245C64.7417 236.802 65.4972 237.115 66.2852 237.116H231.559C232.347 237.115 233.103 236.802 233.66 236.245C234.217 235.688 234.531 234.932 234.532 234.144V190.597C234.531 189.809 234.217 189.053 233.66 188.496C233.103 187.939 232.347 187.625 231.559 187.624L66.2852 187.624Z" fill="#CCCCCC"/>
<path d="M80.3389 207.574C83.6227 207.574 86.2847 204.912 86.2847 201.628C86.2847 198.344 83.6227 195.682 80.3389 195.682C77.0552 195.682 74.3931 198.344 74.3931 201.628C74.3931 204.912 77.0552 207.574 80.3389 207.574Z" fill="#1DC1F7"/>
<path d="M221.68 216.611H76.1638C75.6942 216.611 75.2439 216.425 74.9118 216.093C74.5798 215.761 74.3932 215.31 74.3932 214.841C74.3932 214.371 74.5798 213.921 74.9118 213.589C75.2439 213.257 75.6942 213.07 76.1638 213.07H221.68C222.149 213.07 222.6 213.257 222.932 213.589C223.264 213.921 223.45 214.371 223.45 214.841C223.45 215.31 223.264 215.761 222.932 216.093C222.6 216.425 222.149 216.611 221.68 216.611Z" fill="#1DC1F7"/>
<path d="M207.221 223.607H76.1638C75.931 223.608 75.7004 223.562 75.4851 223.473C75.2699 223.385 75.0743 223.254 74.9095 223.09C74.7447 222.925 74.614 222.73 74.5248 222.515C74.4356 222.3 74.3896 222.069 74.3896 221.837C74.3896 221.604 74.4356 221.373 74.5248 221.158C74.614 220.943 74.7447 220.748 74.9095 220.583C75.0743 220.419 75.2699 220.288 75.4851 220.2C75.7004 220.111 75.931 220.065 76.1638 220.066H141.692H207.221C207.691 220.066 208.141 220.252 208.473 220.585C208.805 220.917 208.992 221.367 208.992 221.837C208.992 222.306 208.805 222.757 208.473 223.089C208.141 223.421 207.691 223.607 207.221 223.607Z" fill="#1DC1F7"/>
<path d="M413.939 338.676L281.065 240.39C280.285 239.812 279.766 238.947 279.622 237.986C279.478 237.026 279.721 236.047 280.298 235.265L306.195 200.255C306.774 199.475 307.638 198.956 308.599 198.812C309.56 198.668 310.538 198.912 311.32 199.488L444.193 297.774C444.974 298.353 445.493 299.217 445.636 300.178C445.78 301.139 445.537 302.117 444.96 302.899L419.063 337.909C418.485 338.689 417.62 339.208 416.659 339.352C415.699 339.496 414.72 339.253 413.939 338.676Z" fill="white"/>
<path d="M413.527 339.232L280.654 240.946C279.726 240.259 279.109 239.231 278.938 238.089C278.767 236.947 279.057 235.784 279.742 234.854L305.639 199.844C306.327 198.916 307.355 198.299 308.497 198.129C309.639 197.958 310.802 198.247 311.731 198.932L444.605 297.218C445.532 297.906 446.149 298.934 446.32 300.076C446.491 301.218 446.202 302.381 445.516 303.31L419.619 338.321C418.932 339.248 417.904 339.865 416.762 340.036C415.62 340.207 414.456 339.918 413.527 339.232ZM310.909 200.045C310.275 199.577 309.481 199.379 308.701 199.496C307.922 199.613 307.221 200.034 306.751 200.667L280.854 235.677C280.386 236.311 280.189 237.105 280.306 237.884C280.422 238.664 280.843 239.365 281.476 239.834L414.35 338.12C414.984 338.588 415.778 338.785 416.557 338.669C417.337 338.552 418.038 338.131 418.507 337.498L444.404 302.488C444.872 301.854 445.069 301.06 444.953 300.28C444.836 299.501 444.415 298.8 443.782 298.33L310.909 200.045Z" fill="#CCCCCC"/>
<path d="M313.879 225.606C317.163 225.606 319.825 222.944 319.825 219.66C319.825 216.377 317.163 213.715 313.879 213.715C310.596 213.715 307.934 216.377 307.934 219.66C307.934 222.944 310.596 225.606 313.879 225.606Z" fill="#1872F9"/>
<path d="M418.601 315.759L301.613 229.223C301.235 228.944 300.984 228.526 300.914 228.062C300.845 227.597 300.963 227.124 301.242 226.747C301.521 226.369 301.939 226.118 302.404 226.049C302.868 225.979 303.341 226.097 303.718 226.376L420.707 312.912C420.894 313.051 421.052 313.224 421.172 313.424C421.292 313.623 421.371 313.844 421.405 314.074C421.44 314.304 421.429 314.538 421.372 314.764C421.316 314.99 421.216 315.202 421.078 315.389C420.94 315.576 420.766 315.734 420.567 315.853C420.367 315.973 420.146 316.052 419.916 316.087C419.686 316.121 419.452 316.11 419.226 316.054C419.001 315.998 418.788 315.898 418.601 315.759Z" fill="#1DC1F7"/>
<path d="M402.817 312.786L297.452 234.848C297.265 234.71 297.107 234.536 296.987 234.337C296.868 234.137 296.788 233.916 296.754 233.686C296.684 233.222 296.802 232.749 297.081 232.371C297.361 231.994 297.779 231.743 298.243 231.673C298.707 231.604 299.18 231.722 299.558 232.001L404.923 309.939C405.3 310.218 405.551 310.636 405.621 311.1C405.69 311.564 405.572 312.037 405.293 312.415C405.014 312.793 404.596 313.044 404.132 313.113C403.667 313.183 403.194 313.065 402.817 312.786Z" fill="#1DC1F7"/>
<path d="M351.892 235.202C351.162 234.616 350.567 233.878 350.15 233.039C349.732 232.2 349.502 231.28 349.475 230.343C349.448 229.407 349.625 228.475 349.993 227.614C350.362 226.752 350.913 225.981 351.609 225.353L341.134 194.854L348.857 189.882L361.034 226.198C362.003 227.447 362.481 229.009 362.375 230.587C362.27 232.166 361.59 233.65 360.463 234.76C359.336 235.87 357.841 236.528 356.262 236.61C354.682 236.691 353.127 236.191 351.892 235.202Z" fill="#FFB6B6"/>
<path d="M342.953 151.051C344.803 158.877 347.564 165.713 347.19 168.996C346.82 172.27 350.821 175.416 349.55 178.004C348.281 180.598 352.187 180.876 351.131 185.052C350.071 189.236 349.382 190.131 350.277 190.819C351.178 191.505 355.94 207.476 355.94 207.476L353.147 208.5L344.997 211.473L325.845 179.972L325.903 141.307L330.658 141.155C331.8 141.583 333.065 142.096 334.326 142.715C338.178 144.575 342.075 147.323 342.953 151.051Z" fill="#E6E6E6"/>
<path d="M272.429 396.389L262.47 396.389L257.731 357.974L272.43 357.975L272.429 396.389Z" fill="#FFB6B6"/>
<path d="M242.368 411.084C242.373 412.199 242.818 413.268 243.606 414.058C244.394 414.847 245.462 415.294 246.578 415.301H265.326L265.907 414.098L268.559 408.625L269.586 414.098L269.813 415.301H276.885L276.784 414.089L274.898 391.477L272.431 391.325L261.773 390.694L259.155 390.534V397.285C257.168 399.399 241.577 407.388 242.368 411.084Z" fill="#2F2E41"/>
<path d="M389.108 385.548L380.446 390.463L357.367 359.39L370.152 352.136L389.108 385.548Z" fill="#FFB6B6"/>
<path d="M370.214 413.163C370.765 414.135 371.679 414.848 372.756 415.147C373.832 415.445 374.983 415.304 375.956 414.754L376.941 414.199H376.949L392.263 405.502L391.774 398.102L396.169 403.288L399.41 401.445L402.315 399.794L399.747 396.04L388.828 380.053L386.605 381.147L377.016 385.853L374.676 387.006L378.001 392.874C377.32 395.703 367.705 410.335 370.214 413.163Z" fill="#2F2E41"/>
<path d="M321.853 207.819C335.199 216.663 348.411 301.629 344.944 300.242L376.4 358.866L331.626 378.937L302.187 276.716L297.28 314.333L303.822 374.03L274.881 381.029L254.863 379.599C260.065 308.441 273.052 233.392 283.815 204.361L321.853 207.819Z" fill="#2F2E41"/>
<path d="M331.986 214.129L332.132 214.676C318.023 222.526 307.379 227.706 291.956 222.954L281.707 213.728L276.927 195.297L277.225 148.821C277.236 147.036 277.614 145.272 278.336 143.64C279.057 142.007 280.106 140.54 281.418 139.33C282.73 138.12 284.277 137.192 285.962 136.605C287.648 136.017 289.436 135.783 291.216 135.915L301.355 128.405L315.789 128.903L325.444 139.567L331.212 141.628L335.694 143.226C336.6 144.042 337.589 144.982 338.536 146.02L331.447 188.208L328.432 200.823L331.986 214.129Z" fill="#E6E6E6"/>
<path d="M317.482 124.439C326.445 119.511 329.715 108.25 324.786 99.2873C319.857 90.325 308.596 87.055 299.634 91.9837C290.672 96.9125 287.402 108.173 292.33 117.136C297.259 126.098 308.52 129.368 317.482 124.439Z" fill="#FFB6B6"/>
<path d="M332.909 101.76C332.854 101.781 332.805 101.802 332.75 101.823C332.645 101.869 332.536 101.909 332.425 101.941C331.719 102.2 330.983 102.369 330.234 102.444C329.915 102.479 329.594 102.496 329.273 102.495C328.861 102.497 328.45 102.47 328.042 102.415C327.588 102.36 327.139 102.268 326.699 102.142C326.491 102.086 326.285 102.02 326.083 101.943C324.708 101.455 323.466 100.654 322.453 99.6043C321.439 98.5544 320.684 97.2838 320.245 95.8925V95.8856C320.198 95.7496 320.158 95.6111 320.126 95.4709C319.92 94.6925 319.816 93.8908 319.816 93.0857V93.0718C319.81 91.1085 320.423 89.1932 321.565 87.5968C322.255 86.6198 323.051 86.4566 322.604 85.3395C321.18 81.776 327.008 78.8631 330.448 80.4299C330.572 80.4181 330.697 80.4132 330.822 80.4151C333.139 80.4093 333.998 83.8306 335.379 85.7567L335.339 85.7697C334.989 85.8922 334.687 86.1209 334.473 86.4239C334.26 86.7268 334.146 87.0889 334.149 87.4595C334.151 87.8301 334.27 88.1906 334.487 88.4907C334.705 88.7907 335.01 89.0153 335.362 89.1331C336.281 89.4327 337.211 89.6974 338.149 89.9271C341.245 93.5835 337.696 104.28 332.909 101.76Z" fill="#2F2E41"/>
<path d="M331.205 111.564C330.184 115.461 328.299 119.262 325.172 121.795C322.039 124.327 307.302 130.326 306.058 125.191C306.89 128.778 306.388 130.149 305.05 131.431C304.821 131.121 304.578 130.824 304.328 130.534C303.409 129.474 302.305 128.589 301.071 127.921C301.039 130.088 301.195 132.254 301.537 134.393C300.986 134.902 300.461 135.439 299.964 136.002C297.581 128.898 292.357 120.39 296.139 113.922C297.64 111.355 296.389 111.003 295.059 110.708C292.738 110.194 291.458 100.668 290.906 98.3529C290.221 95.4498 289.949 92.11 291.748 89.7263C293.548 87.3426 298.098 87.2412 299.018 90.0814L300.934 87.4761C303.41 82.0268 309.983 83.1168 315.926 83.821C321.869 84.5184 327.115 88.6962 329.791 94.0495C332.46 99.4027 332.719 105.772 331.205 111.564Z" fill="#2F2E41"/>
<path d="M321.836 86.6726C321.71 89.9586 322.552 93.2092 324.259 96.0203C325.965 98.8315 328.459 101.079 331.433 102.484C332.64 103.031 333.691 101.241 332.475 100.69C329.819 99.4645 327.586 97.4773 326.061 94.9806C324.537 92.4838 323.788 89.5903 323.911 86.6673C323.98 85.3329 321.905 85.3422 321.836 86.6726Z" fill="#1872F9"/>
<path d="M236.116 215.832C237.019 215.582 237.857 215.138 238.572 214.532C239.286 213.925 239.86 213.171 240.255 212.321C240.649 211.471 240.854 210.546 240.856 209.609C240.858 208.672 240.656 207.745 240.264 206.894L261.925 183.004L256.79 175.388L231.27 203.951C229.886 204.717 228.831 205.963 228.305 207.455C227.779 208.947 227.819 210.579 228.416 212.044C229.013 213.508 230.127 214.703 231.546 215.401C232.966 216.099 234.592 216.253 236.116 215.832Z" fill="#FFB6B6"/>
<path d="M297.688 138.327C297.688 138.327 282.325 135.568 277.538 142.035C272.75 148.502 267.515 153.69 266.562 156.851C265.61 160.012 260.695 161.318 260.84 164.201C260.985 167.084 257.282 165.796 256.608 170.055C255.933 174.314 256.211 175.411 255.113 175.689C254.015 175.967 243.342 188.759 243.342 188.759L251.818 196.751L281.844 175.364L297.688 138.327Z" fill="#E6E6E6"/>
<path d="M159.423 41.2356C168.067 41.2356 175.074 34.2284 175.074 25.5845C175.074 16.9407 168.067 9.93347 159.423 9.93347C150.779 9.93347 143.772 16.9407 143.772 25.5845C143.772 34.2284 150.779 41.2356 159.423 41.2356Z" fill="#1DC1F7"/>
<path d="M159.423 34.0039C159.247 34.0039 159.077 33.9338 158.952 33.8089C158.827 33.684 158.757 33.5146 158.757 33.3379V17.9254C158.757 17.7488 158.827 17.5794 158.952 17.4545C159.077 17.3296 159.247 17.2594 159.423 17.2594C159.6 17.2594 159.769 17.3296 159.894 17.4545C160.019 17.5794 160.089 17.7488 160.089 17.9254V33.3379C160.089 33.5146 160.019 33.684 159.894 33.8089C159.769 33.9338 159.6 34.0039 159.423 34.0039Z" fill="white"/>
<path d="M167.129 26.2976H151.717C151.54 26.2976 151.371 26.2274 151.246 26.1025C151.121 25.9776 151.051 25.8082 151.051 25.6316C151.051 25.455 151.121 25.2855 151.246 25.1606C151.371 25.0357 151.54 24.9656 151.717 24.9656H167.129C167.306 24.9656 167.475 25.0357 167.6 25.1606C167.725 25.2855 167.795 25.455 167.795 25.6316C167.795 25.8082 167.725 25.9776 167.6 26.1025C167.475 26.2274 167.306 26.2976 167.129 26.2976Z" fill="white"/>
<path d="M402.74 415.149L402.647 414.656C401.144 406.367 401.464 397.851 403.584 389.699C405.705 381.547 409.575 373.955 414.926 367.449C417.957 363.824 421.432 360.595 425.269 357.838L425.635 357.574L425.795 357.996C427.703 363.028 430.112 368.068 431.21 370.299L431.951 353.646L432.374 353.422C434.311 352.384 436.514 351.95 438.7 352.175C440.886 352.401 442.954 353.276 444.639 354.688C446.381 356.088 447.664 357.977 448.322 360.113C448.981 362.249 448.985 364.532 448.334 366.67C447.758 368.627 447.215 370.657 446.688 372.619C444.881 379.364 443.013 386.338 439.392 392.211C436.607 396.629 432.871 400.369 428.456 403.159C424.04 405.948 419.058 407.716 413.872 408.334L402.74 415.149Z" fill="#F2F2F2"/>
<path d="M459.5 415.028C459.5 415.136 459.479 415.243 459.438 415.343C459.397 415.443 459.336 415.534 459.26 415.61C459.183 415.687 459.092 415.747 458.992 415.789C458.892 415.83 458.785 415.851 458.677 415.851H1.32304C1.10476 415.851 0.895422 415.764 0.741077 415.61C0.586732 415.455 0.500023 415.246 0.500023 415.028C0.500023 414.809 0.586732 414.6 0.741077 414.446C0.895422 414.291 1.10476 414.205 1.32304 414.205H458.677C458.785 414.204 458.892 414.225 458.992 414.267C459.092 414.308 459.183 414.368 459.26 414.445C459.336 414.521 459.397 414.612 459.438 414.712C459.479 414.812 459.5 414.919 459.5 415.028Z" fill="#CCCCCC"/>
</g>
<defs>
<clipPath id="clip0_9_1497">
<rect width="459" height="415.701" fill="white" transform="translate(0.5 0.149414)"/>
</clipPath>
</defs>
</svg>
