<svg width="272" height="152" viewBox="0 0 272 152" fill="none" xmlns="http://www.w3.org/2000/svg">
<g clip-path="url(#clip0_10_324)">
<path d="M57.2425 151.421H15.6876C15.6876 151.421 14.8452 139.086 19.8289 138.946C24.8125 138.806 24.2509 144.413 30.4984 136.703C36.7458 128.994 44.3265 129.415 45.3092 133.97C46.2919 138.526 43.4141 142.17 48.6785 141.049C53.9429 139.927 61.5242 142.871 57.2425 151.421Z" fill="#EBF3FF"/>
<path d="M35.7639 151.424L35.6235 151.419C35.9507 143.298 37.654 138.08 39.0257 135.132C40.5147 131.932 41.9496 130.637 41.9641 130.624L42.0575 130.729C42.0433 130.742 40.6252 132.024 39.148 135.203C37.784 138.137 36.0899 143.334 35.7639 151.424Z" fill="white"/>
<path d="M50.8032 151.441L50.6685 151.402C51.7135 147.96 53.5974 144.83 56.1513 142.294L56.2456 142.398C53.7106 144.917 51.8407 148.024 50.8032 151.441Z" fill="white"/>
<path d="M22.2331 151.431L22.0939 151.412C22.547 148.367 22.0676 145.257 20.7187 142.489C20.1657 141.328 19.4337 140.261 18.5493 139.327L18.6466 139.225C19.5429 140.171 20.285 141.251 20.8458 142.426C22.2069 145.22 22.6905 148.359 22.2331 151.431Z" fill="white"/>
<path d="M62.8822 151.609H11.2059L11.1941 151.434C11.1646 150.999 10.5052 140.743 13.8334 137.084C14.1636 136.697 14.5712 136.384 15.03 136.164C15.4888 135.944 15.9886 135.823 16.4973 135.807C18.6666 135.746 20.03 136.557 21.1298 137.208C23.2025 138.436 24.5715 139.247 29.5501 133.104C34.9431 126.448 40.7623 125.016 44.1074 125.812C46.2687 126.327 47.7583 127.781 48.1943 129.802C48.6081 131.716 48.4757 133.514 48.3698 134.959C48.2566 136.505 48.1674 137.726 48.8034 138.279C49.3354 138.741 50.3938 138.783 52.1376 138.411C55.6842 137.656 60.6342 138.302 63.1183 141.507C64.4548 143.232 65.5079 146.365 62.9342 151.505L62.8822 151.609ZM11.5585 151.234H62.6496C64.5674 147.349 64.6274 144.067 62.8213 141.737C60.5423 138.797 55.7611 138.023 52.2159 138.778C50.3211 139.182 49.1924 139.115 48.5566 138.562C47.779 137.886 47.8745 136.582 47.9951 134.933C48.0991 133.512 48.2283 131.743 47.8269 129.882C47.4226 128.008 46.035 126.658 44.0199 126.178C40.7815 125.407 35.1237 126.821 29.8418 133.34C24.6596 139.736 23.0982 138.811 20.938 137.531C19.8246 136.871 18.5608 136.124 16.5076 136.182C16.0497 136.197 15.5999 136.307 15.1872 136.506C14.7745 136.704 14.408 136.987 14.1112 137.335C11.1208 140.625 11.4855 149.847 11.5588 151.234H11.5585Z" fill="#2F2E41"/>
<path d="M231.732 151.817H180.833L180.823 151.532L178.393 82.1316H234.172L231.732 151.817ZM181.404 151.227H231.161L233.56 82.7218H179.005L181.404 151.227Z" fill="#0D114F"/>
<path d="M192.975 94.9904H189.104V142.825H192.975V94.9904Z" fill="#0D114F"/>
<path d="M208.219 94.9904H204.347V142.825H208.219V94.9904Z" fill="#0D114F"/>
<path d="M223.462 94.9904H219.59V142.825H223.462V94.9904Z" fill="#0D114F"/>
<path d="M266.516 102.511L266.266 102.353L203.043 62.4614L208.527 53.7969L208.777 53.9545L272 93.8464L266.516 102.511ZM203.859 62.2779L266.332 101.697L271.184 94.0302L208.711 54.611L203.859 62.2779Z" fill="#0D114F"/>
<path d="M251.252 59.2463C249.414 58.085 247.281 57.4746 245.106 57.4873C242.931 57.5001 240.806 58.1355 238.982 59.3182C237.158 60.5009 235.712 62.1812 234.816 64.1598C233.92 66.1383 233.611 68.332 233.926 70.4806L236.941 72.3828C236.183 70.6264 236.009 68.6739 236.443 66.8113C236.877 64.9487 237.897 63.2738 239.353 62.0318C240.81 60.7899 242.626 60.0461 244.537 59.9094C246.447 59.7726 248.351 60.2502 249.97 61.2721C251.589 62.294 252.838 63.8066 253.533 65.5883C254.229 67.3701 254.335 69.3274 253.836 71.1737C253.337 73.02 252.259 74.6584 250.76 75.8488C249.261 77.0392 247.42 77.7192 245.506 77.7892L248.521 79.6914C250.6 79.0541 252.452 77.8347 253.858 76.1778C255.264 74.521 256.164 72.4962 256.452 70.3438C256.739 68.1914 256.403 66.0017 255.481 64.0347C254.56 62.0676 253.093 60.4058 251.254 59.2463H251.252Z" fill="#0D114F"/>
<path d="M268.659 151.41H0V152H268.659V151.41Z" fill="#0D114F"/>
<path d="M117.346 147.383H113.041L110.993 130.806H117.347L117.346 147.383Z" fill="#FFB8B8"/>
<path d="M104.74 151.373H118.268V146.154H109.894C108.527 146.154 107.216 146.697 106.25 147.662C105.283 148.627 104.74 149.936 104.74 151.301V151.373Z" fill="#0D114F"/>
<path d="M115.833 121.696L118.802 124.808L132.236 114.855L127.854 110.263L115.833 121.696Z" fill="#FFB8B8"/>
<path d="M121.861 126.233L116.083 120.18L112.299 123.781L121.634 133.56L121.686 133.51C122.176 133.044 122.569 132.486 122.843 131.868C123.117 131.25 123.267 130.584 123.283 129.908C123.299 129.232 123.182 128.56 122.938 127.93C122.694 127.299 122.328 126.723 121.861 126.233Z" fill="#0D114F"/>
<path d="M85.8729 76.2813C85.6004 75.8437 85.4274 75.3518 85.366 74.8402C85.3045 74.3287 85.3561 73.8099 85.5171 73.3204C85.6781 72.8309 85.9447 72.3825 86.298 72.007C86.6513 71.6314 87.0827 71.3377 87.5619 71.1466L104.461 28.1432L111.049 32.0812L92.2757 73.3357C92.544 74.161 92.4997 75.056 92.1512 75.8509C91.8027 76.6458 91.1742 77.2854 90.3849 77.6485C89.5956 78.0116 88.7003 78.073 87.8687 77.821C87.037 77.569 86.3269 77.0212 85.8729 76.2813Z" fill="#FFB8B8"/>
<path d="M150.018 79.3636C149.503 79.3268 149.002 79.1778 148.551 78.9269C148.1 78.6761 147.71 78.3295 147.408 77.9117C147.105 77.4939 146.898 77.015 146.802 76.5087C146.705 76.0024 146.72 75.4811 146.847 74.9814L121.916 36.0674L128.977 33.0574L151.391 72.4595C152.218 72.7267 152.919 73.288 153.36 74.0369C153.8 74.7858 153.95 75.6701 153.781 76.522C153.611 77.3739 153.134 78.1341 152.441 78.6581C151.747 79.1822 150.885 79.4336 150.018 79.3648V79.3636Z" fill="#FFB8B8"/>
<path d="M104.628 71.9753L109.041 137.461L119.587 136.532L121.758 88.2182L127.651 108.968L140.368 109.897L135.335 68.8782L104.628 71.9753Z" fill="#0D114F"/>
<path d="M129.512 105.871L127.65 108.968L114.625 117.949L123.93 122.904C123.93 122.904 141.92 112.994 140.369 109.897L129.512 105.871Z" fill="#0D114F"/>
<path d="M95.3931 45.4804L99.0641 35.152C99.8809 32.8539 101.146 30.7404 102.786 28.9337C104.427 27.127 106.409 25.663 108.62 24.6265C113.589 22.7988 118.993 22.5035 124.132 23.7787L125.468 24.1098C129.03 24.9719 132.368 26.5815 135.259 28.8314C137.521 30.612 139.556 32.8665 139.737 35.2916C139.738 35.2968 139.74 35.3018 139.742 35.3067C140.368 38.0487 140.679 52.2944 140.679 52.2944H135.152L136.026 71.4955L135.955 71.3565C135.955 71.3565 104.078 77.3797 104.078 74.2826V54.4616L103.424 47.2849L95.3931 45.4804Z" fill="#EBF3FF"/>
<path d="M125.147 21.0939C130.026 21.0939 133.981 17.145 133.981 12.2738C133.981 7.40258 130.026 3.45367 125.147 3.45367C120.269 3.45367 116.313 7.40258 116.313 12.2738C116.313 17.145 120.269 21.0939 125.147 21.0939Z" fill="#FFB8B8"/>
<path d="M126.47 8.31834L133.33 8.59277C134.193 8.59012 135.135 8.55972 135.792 8.00258C136.782 7.16185 136.617 5.57542 136.086 4.39031C134.609 1.09055 131.312 -0.0916054 127.693 0.00548124C124.073 0.102568 120.28 1.32751 118.331 4.3729C116.382 7.41829 115.855 11.264 116.589 14.8028C117.438 13.0033 118.745 11.4577 120.379 10.32C122.013 9.1824 123.917 8.49261 125.902 8.31952L126.47 8.31834Z" fill="#0D114F"/>
<path d="M167.202 94.5915L142.375 77.2183C142.144 77.0562 141.987 76.8095 141.938 76.5321C141.89 76.2548 141.953 75.9694 142.114 75.7384L161.601 47.9779C161.763 47.7476 162.01 47.5909 162.288 47.5422C162.566 47.4934 162.851 47.5565 163.083 47.7177L187.91 65.0908C188.14 65.2529 188.297 65.4996 188.346 65.777C188.395 66.0544 188.332 66.3397 188.17 66.5707L168.685 94.3305C168.522 94.561 168.275 94.718 167.997 94.7669C167.719 94.8158 167.433 94.7527 167.202 94.5915Z" fill="#1DC1F7"/>
<path d="M172.785 75.7404L158.217 65.5461C158.049 65.4282 157.905 65.2783 157.795 65.105C157.684 64.9318 157.609 64.7384 157.573 64.5361C157.538 64.3338 157.542 64.1265 157.587 63.926C157.632 63.7254 157.715 63.5357 157.834 63.3674C157.952 63.1992 158.102 63.0559 158.275 62.9456C158.449 62.8353 158.642 62.7602 158.845 62.7246C159.048 62.6891 159.255 62.6937 159.456 62.7382C159.657 62.7828 159.847 62.8664 160.016 62.9843L174.584 73.1785C174.924 73.4166 175.155 73.7799 175.227 74.1885C175.299 74.5971 175.206 75.0175 174.967 75.3572C174.729 75.6969 174.365 75.9281 173.956 76C173.547 76.0719 173.126 75.9785 172.785 75.7404Z" fill="white"/>
<path d="M169.442 80.5035L154.874 70.3092C154.705 70.1914 154.561 70.0416 154.451 69.8682C154.34 69.6949 154.265 69.5015 154.229 69.2991C154.193 69.0967 154.198 68.8893 154.242 68.6886C154.287 68.488 154.371 68.2981 154.489 68.1298C154.607 67.9615 154.757 67.8181 154.931 67.7077C155.104 67.5974 155.298 67.5224 155.501 67.4868C155.704 67.4513 155.912 67.4561 156.112 67.5008C156.313 67.5455 156.503 67.6293 156.672 67.7474L171.24 77.9416C171.58 78.1799 171.811 78.5431 171.883 78.9515C171.955 79.3599 171.861 79.78 171.623 80.1195C171.384 80.4591 171.021 80.6902 170.612 80.7622C170.203 80.8342 169.782 80.7412 169.442 80.5035Z" fill="white"/>
<path d="M166.062 85.3179L151.494 75.1236C151.326 75.0057 151.182 74.8558 151.072 74.6825C150.961 74.5092 150.886 74.3159 150.85 74.1136C150.815 73.9113 150.819 73.704 150.864 73.5034C150.909 73.3029 150.992 73.1131 151.11 72.9449C151.228 72.7767 151.379 72.6333 151.552 72.523C151.726 72.4128 151.919 72.3377 152.122 72.3021C152.325 72.2665 152.532 72.2711 152.733 72.3157C152.934 72.3602 153.124 72.4438 153.292 72.5617L167.861 82.756C168.201 82.9941 168.432 83.3574 168.504 83.766C168.576 84.1745 168.483 84.5949 168.244 84.9347C168.006 85.2744 167.642 85.5056 167.233 85.5775C166.824 85.6493 166.402 85.5559 166.062 85.3179Z" fill="white"/>
<path d="M172.744 66.318L167.102 62.3695C166.933 62.2516 166.789 62.1018 166.679 61.9285C166.568 61.7552 166.493 61.5618 166.457 61.3594C166.421 61.157 166.426 60.9495 166.47 60.7489C166.515 60.5482 166.599 60.3583 166.717 60.19C166.835 60.0217 166.985 59.8783 167.159 59.768C167.333 59.6577 167.526 59.5826 167.729 59.5471C167.932 59.5116 168.14 59.5163 168.34 59.561C168.541 59.6057 168.732 59.6895 168.9 59.8076L174.543 63.7561C174.883 63.9942 175.114 64.3575 175.186 64.7661C175.258 65.1747 175.165 65.5951 174.926 65.9348C174.688 66.2745 174.324 66.5058 173.915 66.5776C173.506 66.6495 173.085 66.5561 172.744 66.318Z" fill="white"/>
</g>
<defs>
<clipPath id="clip0_10_324">
<rect width="272" height="152" fill="white"/>
</clipPath>
</defs>
</svg>
